<svg width="527" height="457" viewBox="0 0 527 457" fill="none" xmlns="http://www.w3.org/2000/svg">
<path d="M525.709 121.473L524.742 120.015L491.871 85.7646C489.93 82.8644 491.206 78.6231 494.752 77.5535C499.739 76.0388 504.478 73.3575 508.553 69.4911C522.258 56.4176 522.869 34.9059 509.783 21.8493C497.312 8.17473 475.814 7.82815 462.129 20.9429C458.083 24.8214 455.193 29.4383 453.468 34.3598C452.233 37.8498 447.944 38.9339 445.141 36.8698L412.385 2.48901L410.965 1.46546C408.901 -0.512175 405.59 -0.497634 403.447 1.56644L365.456 38.0089C363.099 38.1656 360.78 36.8553 360.057 34.3428C356.829 23.1783 347.54 13.5397 331.793 10.4949C330.179 10.1774 328.461 10.1629 326.83 10.4521C294.577 16.124 286.272 49.6542 303.606 67.8471C307.276 71.699 311.689 74.4255 316.427 76.025C318.983 76.8919 320.118 79.4883 319.66 81.9281L281.45 118.587C279.23 120.711 279.118 124.156 281.173 126.278L315.725 162.303L316.34 162.78L316.546 162.997C319.477 166.068 324.6 164.439 325.673 160.225C328.839 148.051 338.904 137.186 355.705 133.88C358.846 133.651 362.009 133.853 365.084 134.503C372.155 136.435 377.766 139.81 381.947 144.066C386.005 148.44 389.134 154.197 390.732 161.352C391.256 164.439 391.326 167.6 390.955 170.743C386.88 187.379 375.573 196.944 363.272 199.541C359.024 200.449 357.162 205.485 360.102 208.544L360.309 208.759L360.763 209.41L395.183 245.536C397.226 247.687 400.677 247.716 402.886 245.608L441.22 209.062C443.684 208.717 446.227 209.986 446.978 212.569C448.377 217.389 450.895 221.919 454.582 225.757C471.977 243.891 505.824 237.097 512.953 205.138C513.312 203.508 513.377 201.792 513.126 200.177C510.79 184.304 501.571 174.58 490.583 170.859C488.11 170.021 486.876 167.642 487.165 165.305L525.268 128.988C527.417 126.94 527.574 123.638 525.709 121.473Z" fill="#E8E7EE"/>
<path d="M351.133 456.353H351.422L352.211 456.469L402.106 456.685C405.078 456.7 407.481 454.219 407.498 451.174L407.713 398.209C409.17 396.206 411.833 395.236 414.227 396.494C418.664 398.815 423.679 400.143 428.998 400.143C454.125 400.173 472.681 371.056 454.567 343.761C453.651 342.391 452.454 341.146 451.116 340.197C438.046 330.891 424.671 330.804 414.363 336.156C412.039 337.355 409.48 336.576 407.989 334.759L408.199 282.125C408.22 279.168 405.945 276.745 403.093 276.614L401.363 276.282L353.89 276.253C350.464 275.646 348.28 271.794 349.977 268.49C352.326 263.846 353.684 258.566 353.708 252.966C353.791 234.022 338.702 218.674 320.218 219.062C301.712 218.571 286.561 233.848 286.541 252.795C286.553 258.405 287.858 263.687 290.227 268.346C291.891 271.65 289.687 275.502 286.252 276.096L238.762 275.88L237.049 276.195C235.01 276.282 233.297 277.566 232.455 279.37C232.744 280.192 232.926 281.087 232.926 282.012L232.835 336.358L229.859 335.768C228.509 336.358 226.965 336.459 225.492 335.681L224.571 335.277C222.97 335.291 221.322 335.407 219.621 335.652L219.188 335.71L218.754 335.638C216.876 335.292 215.205 334.988 213.594 334.988C198.366 335.017 185.759 346.774 183.852 362.054C183.682 363.367 183.566 364.695 183.566 366.066C183.566 371.548 185.036 377.406 188.202 383.336C188.883 384.62 189.564 385.919 190.419 387.217C191.153 388.313 192.119 389.31 193.189 390.057C200.182 395.009 207.047 397 213.437 397.013C215.146 397 216.822 396.856 218.465 396.595L218.898 396.509L219.331 396.582C220.718 396.811 221.8 397.028 222.803 397.145C223.645 396.798 224.496 396.452 225.313 396.018C227.043 395.124 228.909 395.413 230.349 396.379L232.727 395.902L232.641 451.074C232.641 451.78 232.517 452.474 232.355 453.138C233.226 454.969 235.01 456.267 237.131 456.267L287.04 456.298L287.803 456.195H288.105C292.357 456.21 294.718 451.391 292.427 447.683C285.843 436.978 284.992 422.204 294.252 407.791C296.263 405.351 298.594 403.231 301.191 401.456C307.483 397.689 313.811 395.989 319.78 395.918C325.741 396.017 332.049 397.763 338.324 401.545C340.903 403.333 343.236 405.467 345.238 407.921C354.427 422.376 353.477 437.15 346.835 447.827C344.553 451.519 346.885 456.353 351.133 456.353Z" fill="#5EA3D6"/>
<path d="M174.519 269.354L174.408 269.644L174.358 269.747L174.073 270.884C174.061 272.083 175.035 273.295 176.236 273.553L223.362 273.468C224.039 273.468 224.605 273.655 225.195 273.8V273.785C226.85 273.857 228.365 274.436 229.608 275.373L229.909 273.886L230.124 220.923C231.585 218.917 234.248 217.966 236.638 219.207C241.067 221.528 246.078 222.856 251.404 222.856C276.543 222.885 295.091 193.77 276.977 166.473C276.052 165.103 274.867 163.862 273.53 162.91C260.465 153.603 247.078 153.516 236.765 158.871C234.453 160.066 231.882 159.288 230.395 157.469L230.618 104.838C230.622 101.882 228.351 99.4555 225.5 99.327L223.774 98.9966L176.301 98.9651C172.867 98.3608 170.683 94.5049 172.375 91.2048C174.744 86.5564 176.09 81.277 176.124 75.677C176.21 56.723 161.122 41.385 142.62 41.7728C124.127 41.2857 108.972 56.5615 108.948 75.5049C108.956 81.1171 110.273 86.3989 112.634 91.0594C114.298 94.3603 112.102 98.2154 108.671 98.7914L61.1783 98.5894L59.4608 98.9053C56.6042 99.0233 54.3253 101.431 54.3253 104.406L54.28 157.036C52.7693 158.839 50.206 159.618 47.9028 158.393C37.6196 152.995 24.2285 153.01 11.117 162.259C9.77513 163.199 8.57788 164.439 7.64481 165.809C-10.6136 193.005 7.81044 222.207 32.9421 222.306C38.2634 222.335 43.2875 221.037 47.7202 218.728C50.1268 217.489 52.7935 218.47 54.2218 220.49L54.1806 273.453C54.1806 274.116 54.3333 274.737 54.5442 275.329C55.7786 274.419 57.2812 273.857 58.9284 273.785V273.8C59.5101 273.655 60.0885 273.468 60.7655 273.468L107.896 273.553C109.093 273.295 110.071 272.083 110.046 270.901L109.77 269.747L109.717 269.617L109.655 269.487L109.593 269.328C107.195 264.464 105.804 258.981 105.766 253.168H105.758V253.011V252.981V252.894C105.758 249.216 106.451 245.798 107.368 242.592C111.699 227.574 125.115 216.437 141.281 216.437L142.135 216.452L142.854 216.437C159.003 216.437 172.431 227.575 176.762 242.592C177.678 245.798 178.359 249.216 178.359 252.908V252.981C178.358 258.882 176.947 264.436 174.519 269.354Z" fill="#514F6D"/>
<path d="M190.884 338.017C197.089 332.478 205.18 329.087 214.068 329.06L214.08 331.714V329.06C216.235 329.06 218.13 329.433 219.88 329.737C221.672 329.506 223.46 329.349 225.247 329.335C226.126 329.335 227.009 329.376 227.896 329.461L227.963 281.534C227.963 280.019 226.886 278.925 225.622 278.78L225.445 278.734L225.036 278.72L224.643 278.578L223.847 278.419L176.135 278.503L175.904 278.461C172.172 277.784 169.6 274.71 169.253 271.119L169.121 270.398C169.121 269.271 169.389 268.117 169.921 267.007H169.896L170.004 266.732L170.065 266.646C172.183 262.373 173.405 257.599 173.405 252.49V252.418C173.405 249.419 172.847 246.519 172.018 243.618C168.285 230.75 156.896 221.385 143.331 221.385L142.638 221.4H142.564H142.486L141.763 221.385C135.381 221.385 129.524 223.508 124.677 227.043C119.216 231.025 115.051 236.795 113.086 243.617C112.603 245.262 112.265 246.921 112.021 248.595C111.831 249.849 111.678 251.105 111.678 252.389V252.403V252.49C111.678 257.598 112.908 262.372 115.039 266.628L115.104 266.746L115.149 266.876L115.216 267.035L115.195 267.047C115.694 268.129 115.971 269.285 115.971 270.41L115.847 271.061C115.525 274.681 112.942 277.783 109.197 278.461L108.97 278.503L61.258 278.419L60.8703 278.49L60.4534 278.577L60.0656 278.719L59.6488 278.734C58.3069 278.792 57.1299 279.947 57.1178 281.52L57.2082 335.131L56.5846 335.897C55.09 337.685 52.8903 338.826 50.4586 338.826C49.2452 338.826 47.9866 338.538 46.8507 337.93C42.7888 335.825 38.2357 334.628 33.3724 334.628C26.9532 334.628 19.9604 336.704 12.9142 341.711C11.8487 342.462 10.8623 343.455 10.1441 344.553C5.31793 351.782 3.29102 359.01 3.29102 365.691C3.29102 382.887 16.7814 396.738 33.29 396.765H33.3433C38.1937 396.765 42.7678 395.582 46.8297 393.462C47.9405 392.886 49.1499 392.597 50.3261 392.597C52.9888 392.597 55.3413 393.983 56.8067 396.015L57.3222 396.737L57.4054 450.566C57.4054 452.165 58.6478 453.365 60.0471 453.365L109.754 453.28L110.542 453.162H110.744H111.033C111.83 453.148 112.342 452.873 112.796 452.412C113.229 451.921 113.506 451.215 113.506 450.464L113.035 448.806C109.551 443.177 107.529 436.484 107.529 429.328C107.529 421.812 109.767 413.787 114.749 405.995L114.844 405.853L114.939 405.739C117.114 403.098 119.649 400.79 122.452 398.87L122.518 398.826L122.576 398.784C129.242 394.773 136.054 392.911 142.507 392.796H142.527H142.589C149.046 392.911 155.848 394.773 162.508 398.784L162.574 398.813L162.644 398.871C165.447 400.79 167.978 403.098 170.149 405.74L170.253 405.87L170.343 405.995C175.321 413.787 177.568 421.812 177.555 429.342C177.555 436.483 175.549 443.176 172.052 448.82L171.573 450.463C171.569 451.214 171.859 451.92 172.296 452.412C172.738 452.872 173.262 453.146 174.058 453.161H174.537L174.727 453.192L175.322 453.278L225.045 453.363C226.44 453.363 227.686 452.164 227.691 450.564L227.778 401.956C226.659 402.101 225.499 402.204 224.289 402.204H224.273C222.217 402.19 220.599 401.74 219.241 401.51C217.499 401.77 215.74 401.956 213.924 401.956C206.655 401.956 198.923 399.649 191.372 394.528L190.518 394.008C188.921 392.854 187.5 391.411 186.381 389.737C183.538 385.481 181.572 381.141 180.309 376.839C179.921 375.5 179.628 374.155 179.376 372.83C178.909 370.377 178.616 367.951 178.616 365.572C178.616 354.582 183.359 344.725 190.884 338.017Z" fill="#5EBD75"/>
</svg>
