<svg width="117" height="39" viewBox="0 0 117 39" fill="none" xmlns="http://www.w3.org/2000/svg">
<rect x="0.859479" y="0.485944" width="115.655" height="37.9036" rx="5.34538" fill="black"/>
<rect x="0.859479" y="0.485944" width="115.655" height="37.9036" rx="5.34538" stroke="#A6A6A6" stroke-width="0.971888"/>
<path d="M24.3833 20.1792C24.3951 19.2852 24.6384 18.4086 25.0904 17.631C25.5425 16.8534 26.1887 16.2 26.9688 15.7318C26.4732 15.0407 25.8194 14.472 25.0592 14.0708C24.2991 13.6696 23.4536 13.447 22.5899 13.4206C20.7475 13.2318 18.9614 14.4969 18.0226 14.4969C17.0656 14.4969 15.6201 13.4393 14.0635 13.4706C13.0567 13.5023 12.0754 13.7882 11.2154 14.3003C10.3554 14.8123 9.64587 15.5332 9.15603 16.3925C7.03419 19.9792 8.61689 25.2504 10.6495 28.1496C11.6664 29.5692 12.8549 31.155 14.4101 31.0988C15.9319 31.0371 16.5003 30.1513 18.3373 30.1513C20.1572 30.1513 20.6904 31.0988 22.2771 31.063C23.9101 31.0371 24.939 29.637 25.9202 28.204C26.6509 27.1924 27.2132 26.0744 27.5862 24.8914C26.6375 24.4997 25.8279 23.8439 25.2583 23.006C24.6887 22.168 24.3844 21.1849 24.3833 20.1792Z" fill="white"/>
<path d="M21.3864 11.5139C22.2768 10.4704 22.7154 9.12909 22.6092 7.7749C21.2489 7.91439 19.9924 8.5491 19.09 9.55259C18.6488 10.0428 18.3109 10.6131 18.0956 11.2309C17.8803 11.8487 17.7918 12.5019 17.8352 13.1531C18.5156 13.16 19.1887 13.016 19.8038 12.7321C20.4189 12.4481 20.9601 12.0316 21.3864 11.5139Z" fill="white"/>
<path d="M35.9969 6.6819H37.6594C39.096 6.6819 39.7949 7.5361 39.7949 9.08565C39.7949 10.6352 39.089 11.5 37.6594 11.5H35.9969V6.6819ZM36.7982 7.35608V10.8258H37.5712C38.5242 10.8258 38.9725 10.2505 38.9725 9.09624C38.9725 7.93496 38.5207 7.35608 37.5712 7.35608H36.7982ZM42.3293 7.70552C43.3035 7.70552 43.9847 8.33735 43.9847 9.38568V9.86926C43.9847 10.9529 43.3035 11.5635 42.3293 11.5635C41.341 11.5635 40.6668 10.9599 40.6668 9.87279V9.38921C40.6668 8.36912 41.3515 7.70552 42.3293 7.70552ZM42.3328 8.33735C41.7751 8.33735 41.4574 8.80328 41.4574 9.42804V9.84455C41.4574 10.4693 41.7539 10.9317 42.3328 10.9317C42.9046 10.9317 43.1976 10.4728 43.1976 9.84455V9.42804C43.1976 8.80328 42.8905 8.33735 42.3328 8.33735ZM49.7382 7.76906L48.757 11.5H47.9592L47.1792 8.7468H47.158L46.392 11.5H45.5908L44.5671 7.76906H45.4108L46.0108 10.614H46.0461L46.7979 7.76906H47.5357L48.3087 10.614H48.344L48.9546 7.76906H49.7382ZM50.5148 11.5V7.76906H51.2842V8.43971H51.3231C51.4184 8.14674 51.6902 7.71258 52.4455 7.71258C53.1974 7.71258 53.7021 8.12909 53.7021 8.97976V11.5H52.9185V9.2092C52.9185 8.64091 52.622 8.37971 52.1808 8.37971C51.6019 8.37971 51.2984 8.82445 51.2984 9.42804V11.5H50.5148ZM54.8881 11.5V6.42776H55.6717V11.5H54.8881ZM58.3614 7.70552C59.3356 7.70552 60.0168 8.33735 60.0168 9.38568V9.86926C60.0168 10.9529 59.3356 11.5635 58.3614 11.5635C57.3731 11.5635 56.6989 10.9599 56.6989 9.87279V9.38921C56.6989 8.36912 57.3836 7.70552 58.3614 7.70552ZM58.3649 8.33735C57.8072 8.33735 57.4895 8.80328 57.4895 9.42804V9.84455C57.4895 10.4693 57.786 10.9317 58.3649 10.9317C58.9367 10.9317 59.2297 10.4728 59.2297 9.84455V9.42804C59.2297 8.80328 58.9226 8.33735 58.3649 8.33735ZM62.0464 11.5565C61.3228 11.5565 60.8251 11.1117 60.8251 10.4164C60.8251 9.75631 61.284 9.31156 62.1453 9.31156H63.0877V8.96211C63.0877 8.53501 62.8159 8.33382 62.3853 8.33382C61.9617 8.33382 61.7711 8.51031 61.7111 8.75739H60.9663C61.0122 8.13262 61.4817 7.71258 62.41 7.71258C63.2077 7.71258 63.8678 8.04438 63.8678 8.9727V11.5H63.123V11.0164H63.0877C62.9218 11.3023 62.5971 11.5565 62.0464 11.5565ZM62.29 10.9494C62.7347 10.9494 63.0877 10.6458 63.0877 10.2399V9.83749H62.2688C61.8135 9.83749 61.6123 10.0669 61.6123 10.3775C61.6123 10.7658 61.937 10.9494 62.29 10.9494ZM66.2821 7.71964C66.8081 7.71964 67.2105 7.95261 67.3552 8.33029H67.394V6.42776H68.1776V11.5H67.4152V10.9035H67.3764C67.2634 11.2812 66.8151 11.5494 66.2715 11.5494C65.4138 11.5494 64.8561 10.9388 64.8561 9.95397V9.31509C64.8561 8.33029 65.4244 7.71964 66.2821 7.71964ZM66.501 8.36206C65.9786 8.36206 65.6538 8.75033 65.6538 9.42804V9.83749C65.6538 10.5187 65.9821 10.907 66.5186 10.907C67.0481 10.907 67.394 10.5223 67.394 9.88691V9.32215C67.394 8.7468 67.0163 8.36206 66.501 8.36206ZM72.4804 7.70552C73.4546 7.70552 74.1358 8.33735 74.1358 9.38568V9.86926C74.1358 10.9529 73.4546 11.5635 72.4804 11.5635C71.492 11.5635 70.8179 10.9599 70.8179 9.87279V9.38921C70.8179 8.36912 71.5026 7.70552 72.4804 7.70552ZM72.4839 8.33735C71.9262 8.33735 71.6085 8.80328 71.6085 9.42804V9.84455C71.6085 10.4693 71.905 10.9317 72.4839 10.9317C73.0557 10.9317 73.3487 10.4728 73.3487 9.84455V9.42804C73.3487 8.80328 73.0416 8.33735 72.4839 8.33735ZM75.1453 11.5V7.76906H75.9148V8.43971H75.9536C76.0489 8.14674 76.3207 7.71258 77.0761 7.71258C77.8279 7.71258 78.3327 8.12909 78.3327 8.97976V11.5H77.5491V9.2092C77.5491 8.64091 77.2526 8.37971 76.8114 8.37971C76.2325 8.37971 75.9289 8.82445 75.9289 9.42804V11.5H75.1453ZM81.3647 7.79377V6.86192H82.1307V7.79377H82.9672V8.40794H82.1307V10.3881C82.1307 10.7941 82.2825 10.907 82.7025 10.907C82.8084 10.907 82.9496 10.8999 83.0096 10.8929V11.4929C82.9461 11.5035 82.6849 11.5247 82.5084 11.5247C81.6012 11.5247 81.3541 11.2 81.3541 10.4517V8.40794H80.7859V7.79377H81.3647ZM83.9556 11.5V6.42776H84.7356V8.43971H84.7745C84.8556 8.17498 85.1592 7.71258 85.9075 7.71258C86.6346 7.71258 87.1535 8.13262 87.1535 8.98329V11.5H86.3734V9.21273C86.3734 8.64444 86.0593 8.37971 85.6145 8.37971C85.0533 8.37971 84.7356 8.82092 84.7356 9.42804V11.5H83.9556ZM89.7832 11.5635C88.7666 11.5635 88.1348 10.9388 88.1348 9.88691V9.38215C88.1348 8.32323 88.8266 7.70552 89.7373 7.70552C90.6727 7.70552 91.3327 8.355 91.3327 9.38215V9.81984H88.9113V10.0034C88.9113 10.5399 89.229 10.9352 89.7796 10.9352C90.1891 10.9352 90.4715 10.7411 90.5244 10.5081H91.2904C91.2445 10.9388 90.7891 11.5635 89.7832 11.5635ZM88.9113 9.30803H90.5668V9.25861C90.5668 8.69738 90.2385 8.32323 89.7408 8.32323C89.2431 8.32323 88.9113 8.69738 88.9113 9.25861V9.30803Z" fill="white"/>
<path d="M37.1335 26.5H35.5028L38.8207 16.8638H40.6138L43.9247 26.5H42.2305L41.3763 23.8315H37.9948L37.1335 26.5ZM39.7243 18.5298H39.6608L38.3548 22.6032H41.0162L39.7243 18.5298ZM48.4253 26.6059C47.4582 26.6059 46.724 26.147 46.3287 25.4623H46.2722V28.9779H44.705V19.0381H46.2298V20.1323H46.2863C46.6958 19.4193 47.4582 18.9393 48.4606 18.9393C50.1337 18.9393 51.3268 20.2029 51.3268 22.4337V23.0973C51.3268 25.314 50.1478 26.6059 48.4253 26.6059ZM48.0653 25.314C49.0607 25.314 49.7384 24.5163 49.7384 23.0126V22.4902C49.7384 21.043 49.103 20.2171 48.0371 20.2171C46.9428 20.2171 46.2581 21.1066 46.2581 22.4832V23.0126C46.2581 24.4245 46.9499 25.314 48.0653 25.314ZM56.3921 26.6059C55.425 26.6059 54.6908 26.147 54.2955 25.4623H54.239V28.9779H52.6718V19.0381H54.1966V20.1323H54.2531C54.6626 19.4193 55.425 18.9393 56.4274 18.9393C58.1005 18.9393 59.2936 20.2029 59.2936 22.4337V23.0973C59.2936 25.314 58.1146 26.6059 56.3921 26.6059ZM56.0321 25.314C57.0275 25.314 57.7052 24.5163 57.7052 23.0126V22.4902C57.7052 21.043 57.0698 20.2171 56.0039 20.2171C54.9096 20.2171 54.2249 21.1066 54.2249 22.4832V23.0126C54.2249 24.4245 54.9167 25.314 56.0321 25.314ZM62.5413 23.8245H64.1085C64.1791 24.6575 64.9133 25.3705 66.2758 25.3705C67.5253 25.3705 68.2665 24.7845 68.2665 23.8739C68.2665 23.1397 67.7724 22.7444 66.7417 22.4973L65.1604 22.1019C63.9179 21.8125 62.8025 21.0713 62.8025 19.504C62.8025 17.6615 64.4121 16.652 66.2828 16.652C68.1536 16.652 69.7137 17.6615 69.749 19.4617H68.2101C68.1395 18.6428 67.5112 17.9651 66.2616 17.9651C65.1604 17.9651 64.4121 18.4875 64.4121 19.384C64.4121 20.0123 64.8497 20.4641 65.7463 20.6689L67.3206 21.0571C68.7678 21.4101 69.869 22.0949 69.869 23.7327C69.869 25.6246 68.3371 26.6906 66.1557 26.6906C63.4731 26.6906 62.5766 25.1234 62.5413 23.8245ZM71.7788 19.0381V17.2238H73.3178V19.0381H74.772V20.2947H73.3178V24.2763C73.3178 25.0881 73.6213 25.314 74.4614 25.314C74.5955 25.314 74.7226 25.314 74.8144 25.2999V26.5C74.6873 26.5212 74.3908 26.5494 74.0731 26.5494C72.2589 26.5494 71.7576 25.8999 71.7576 24.4033V20.2947H70.7269V19.0381H71.7788ZM79.0044 18.911C81.1504 18.911 82.3153 20.4218 82.3153 22.4549V23.055C82.3153 25.1587 81.1575 26.6271 79.0044 26.6271C76.8512 26.6271 75.6793 25.1587 75.6793 23.055V22.4549C75.6793 20.4288 76.8583 18.911 79.0044 18.911ZM79.0044 20.1676C77.8395 20.1676 77.2607 21.1207 77.2607 22.4761V23.0479C77.2607 24.3822 77.8325 25.3634 79.0044 25.3634C80.1762 25.3634 80.741 24.3892 80.741 23.0479V22.4761C80.741 21.1136 80.1692 20.1676 79.0044 20.1676ZM83.6391 26.5V19.0381H85.2063V20.0194H85.2628C85.4534 19.5535 86.0111 18.9322 87.0488 18.9322C87.2535 18.9322 87.43 18.9463 87.5783 18.9746V20.3582C87.4442 20.3229 87.1688 20.3018 86.9076 20.3018C85.651 20.3018 85.2275 21.0783 85.2275 22.0808V26.5H83.6391ZM91.38 26.6271C89.3822 26.6271 88.1114 25.3069 88.1114 23.0973V22.342C88.1114 20.2594 89.3539 18.911 91.3165 18.911C93.3072 18.911 94.5073 20.3088 94.5073 22.4126V23.1256H89.6575V23.3021C89.6575 24.5586 90.3352 25.3917 91.4012 25.3917C92.1989 25.3917 92.7425 24.9963 92.9331 24.3539H94.4226C94.1967 25.5611 93.2225 26.6271 91.38 26.6271ZM89.6575 22.0313H92.9754V22.0172C92.9754 20.9583 92.3189 20.1253 91.3235 20.1253C90.314 20.1253 89.6575 20.9583 89.6575 22.0172V22.0313Z" fill="white"/>
</svg>
