<svg width="117" height="39" viewBox="0 0 117 39" fill="none" xmlns="http://www.w3.org/2000/svg">
<rect x="0.485944" y="0.485944" width="115.655" height="37.9036" rx="5.34538" fill="black"/>
<rect x="0.485944" y="0.485944" width="115.655" height="37.9036" rx="5.34538" stroke="#A6A6A6" stroke-width="0.971888"/>
<path d="M17.3042 18.9143L7.86206 29.1621C7.86295 29.1639 7.86295 29.1666 7.86383 29.1684C8.15383 30.2812 9.14708 31.1001 10.3266 31.1001C10.7984 31.1001 11.2409 30.9695 11.6205 30.741L11.6506 30.7228L22.2784 24.4517L17.3042 18.9143Z" fill="#EA4335"/>
<path d="M26.856 17.1693L26.8472 17.1629L22.2587 14.4432L17.0894 19.1472L22.2773 24.4507L26.841 21.7581C27.6409 21.3156 28.1845 20.4531 28.1845 19.4592C28.1845 18.4707 27.6489 17.6128 26.856 17.1693Z" fill="#FBBC04"/>
<path d="M7.86181 9.7121C7.80505 9.92613 7.7749 10.151 7.7749 10.3832V28.4919C7.7749 28.7241 7.80505 28.949 7.8627 29.1621L17.6285 19.1764L7.86181 9.7121Z" fill="#4285F4"/>
<path d="M17.3735 19.4375L22.2599 14.4415L11.6446 8.14766C11.2588 7.91096 10.8083 7.77493 10.3267 7.77493C9.14723 7.77493 8.15221 8.59566 7.86221 9.70932C7.86221 9.71023 7.86133 9.71114 7.86133 9.71204L17.3735 19.4375Z" fill="#34A853"/>
<path d="M42.3841 10.6619C42.3841 11.6338 42.0958 12.408 41.5191 12.9847C40.8712 13.6715 40.0192 14.0149 38.9631 14.0149C37.9523 14.0149 37.097 13.665 36.3973 12.9652C35.6975 12.2655 35.3476 11.4037 35.3476 10.38C35.3476 9.3563 35.6975 8.49456 36.3973 7.7948C37.097 7.09504 37.9523 6.74516 38.9631 6.74516C39.4749 6.74516 39.9576 6.83587 40.4112 7.01729C40.8647 7.1987 41.2373 7.45464 41.5288 7.78508L40.8874 8.42652C40.6736 8.16735 40.395 7.9665 40.0516 7.82395C39.7147 7.67493 39.3518 7.60042 38.9631 7.60042C38.205 7.60042 37.5635 7.86283 37.0387 8.38765C36.5204 8.91895 36.2612 9.58307 36.2612 10.38C36.2612 11.177 36.5204 11.8411 37.0387 12.3724C37.5635 12.8972 38.205 13.1596 38.9631 13.1596C39.6563 13.1596 40.233 12.9652 40.693 12.5765C41.153 12.1877 41.4187 11.6532 41.49 10.9729H38.9631V10.137H42.3355C42.3679 10.3185 42.3841 10.4934 42.3841 10.6619ZM47.533 6.90066V7.75592H44.3646V9.96211H47.222V10.7979H44.3646V13.0041H47.533V13.8594H43.4705V6.90066H47.533ZM51.1095 7.75592V13.8594H50.2153V7.75592H48.2715V6.90066H53.0532V7.75592H51.1095ZM57.0162 13.8594H56.1221V6.90066H57.0162V13.8594ZM60.7904 7.75592V13.8594H59.8962V7.75592H57.9524V6.90066H62.7341V7.75592H60.7904ZM72.4261 10.38C72.4261 11.4102 72.0827 12.272 71.3959 12.9652C70.7027 13.665 69.8539 14.0149 68.8496 14.0149C67.8388 14.0149 66.99 13.665 66.3032 12.9652C65.6164 12.272 65.273 11.4102 65.273 10.38C65.273 9.34982 65.6164 8.48808 66.3032 7.7948C66.99 7.09504 67.8388 6.74516 68.8496 6.74516C69.8604 6.74516 70.7091 7.09828 71.3959 7.80452C72.0827 8.49779 72.4261 9.3563 72.4261 10.38ZM66.1866 10.38C66.1866 11.1834 66.4393 11.8476 66.9447 12.3724C67.4565 12.8972 68.0915 13.1596 68.8496 13.1596C69.6077 13.1596 70.2394 12.8972 70.7448 12.3724C71.2566 11.854 71.5126 11.1899 71.5126 10.38C71.5126 9.57011 71.2566 8.90599 70.7448 8.38765C70.2394 7.86283 69.6077 7.60042 68.8496 7.60042C68.0915 7.60042 67.4565 7.86283 66.9447 8.38765C66.4393 8.91247 66.1866 9.57659 66.1866 10.38ZM74.3755 13.8594H73.4813V6.90066H74.5698L77.952 12.3141H77.9909L77.952 10.9729V6.90066H78.8461V13.8594H77.9131L74.3755 8.18355H74.3366L74.3755 9.52476V13.8594Z" fill="white"/>
<path d="M90.8892 30.8641H92.4722V20.1622H90.8892V30.8641ZM105.147 24.0171L103.333 28.6571H103.278L101.395 24.0171H99.69L102.514 30.502L100.905 34.1095H102.555L106.908 24.0171H105.147ZM96.1702 29.6485C95.651 29.6485 94.9282 29.3874 94.9282 28.7393C94.9282 27.914 95.8283 27.5973 96.6062 27.5973C97.3019 27.5973 97.6302 27.7488 98.0526 27.9551C97.9296 28.9465 97.0838 29.6485 96.1702 29.6485ZM96.361 23.7834C95.2149 23.7834 94.0272 24.2928 93.5369 25.422L94.9417 26.0135C95.2421 25.422 95.8011 25.2285 96.3882 25.2285C97.2068 25.2285 98.0391 25.7242 98.0526 26.6059V26.7155C97.7659 26.5503 97.1525 26.3029 96.4018 26.3029C94.8875 26.3029 93.3452 27.1427 93.3452 28.7119C93.3452 30.1441 94.5871 31.067 95.9784 31.067C97.0431 31.067 97.6302 30.585 97.9984 30.02H98.0526V30.8461H99.5805V26.7429C99.5805 24.8432 98.1757 23.7834 96.361 23.7834ZM86.5779 25.3201H84.3263V21.6517H86.5779C87.7613 21.6517 88.4332 22.6405 88.4332 23.4855C88.4332 24.315 87.7613 25.3201 86.5779 25.3201ZM86.5372 20.1622H82.7442V30.8641H84.3263V26.8097H86.5372C88.2915 26.8097 90.0162 25.5273 90.0162 23.4855C90.0162 21.4437 88.2915 20.1622 86.5372 20.1622ZM65.8535 29.6502C64.76 29.6502 63.8446 28.7265 63.8446 27.4577C63.8446 26.1753 64.76 25.237 65.8535 25.237C66.9335 25.237 67.7801 26.1753 67.7801 27.4577C67.7801 28.7265 66.9335 29.6502 65.8535 29.6502ZM67.6716 24.6164H67.6164C67.261 24.1892 66.578 23.8031 65.717 23.8031C63.9125 23.8031 62.2591 25.4023 62.2591 27.4577C62.2591 29.4986 63.9125 31.085 65.717 31.085C66.578 31.085 67.261 30.6989 67.6164 30.2571H67.6716V30.7819C67.6716 32.1748 66.9335 32.9196 65.7441 32.9196C64.7736 32.9196 64.1721 32.2159 63.9261 31.6226L62.5458 32.2022C62.942 33.1678 63.9948 34.3535 65.7441 34.3535C67.6028 34.3535 69.1748 33.25 69.1748 30.561V24.0231H67.6716V24.6164ZM70.2683 30.8641H71.8539V20.1613H70.2683V30.8641ZM74.1903 27.3336C74.1495 25.927 75.2702 25.2096 76.0761 25.2096C76.7056 25.2096 77.2384 25.5264 77.4157 25.9818L74.1903 27.3336ZM79.1107 26.1197C78.8104 25.3064 77.8942 23.8031 76.0219 23.8031C74.1631 23.8031 72.6191 25.2781 72.6191 27.444C72.6191 29.4849 74.1496 31.085 76.1992 31.085C77.8534 31.085 78.8104 30.0645 79.2066 29.4712L77.9765 28.6434C77.5667 29.2504 77.0059 29.6502 76.1992 29.6502C75.3932 29.6502 74.8189 29.2778 74.4499 28.5475L79.2744 26.5332L79.1107 26.1197ZM40.6737 24.9203V26.4647H44.336C44.2266 27.3336 43.9398 27.968 43.5029 28.4088C42.9693 28.9473 42.1354 29.5406 40.6737 29.5406C38.4179 29.5406 36.655 27.706 36.655 25.4305C36.655 23.1542 38.4179 21.3204 40.6737 21.3204C41.8902 21.3204 42.7784 21.8033 43.4342 22.4239L44.5142 21.3341C43.5979 20.4515 42.3823 19.7752 40.6737 19.7752C37.5848 19.7752 34.988 22.3135 34.988 25.4305C34.988 28.5475 37.5848 31.085 40.6737 31.085C42.3407 31.085 43.5979 30.5328 44.582 29.4986C45.5941 28.4782 45.908 27.0442 45.908 25.8851C45.908 25.5264 45.8808 25.1959 45.8257 24.9203H40.6737ZM50.0725 29.6502C48.979 29.6502 48.0357 28.7401 48.0357 27.444C48.0357 26.1334 48.979 25.237 50.0725 25.237C51.1652 25.237 52.1086 26.1334 52.1086 27.444C52.1086 28.7401 51.1652 29.6502 50.0725 29.6502ZM50.0725 23.8031C48.0764 23.8031 46.4501 25.3338 46.4501 27.444C46.4501 29.5406 48.0764 31.085 50.0725 31.085C52.0679 31.085 53.6941 29.5406 53.6941 27.444C53.6941 25.3338 52.0679 23.8031 50.0725 23.8031ZM57.9732 29.6502C56.8797 29.6502 55.9363 28.7401 55.9363 27.444C55.9363 26.1334 56.8797 25.237 57.9732 25.237C59.0667 25.237 60.0093 26.1334 60.0093 27.444C60.0093 28.7401 59.0667 29.6502 57.9732 29.6502ZM57.9732 23.8031C55.9779 23.8031 54.3516 25.3338 54.3516 27.444C54.3516 29.5406 55.9779 31.085 57.9732 31.085C59.9685 31.085 61.5948 29.5406 61.5948 27.444C61.5948 25.3338 59.9685 23.8031 57.9732 23.8031Z" fill="white"/>
</svg>
