<svg width="1728" height="834" viewBox="0 0 1728 834" fill="none" xmlns="http://www.w3.org/2000/svg">
<path d="M1299.26 1938C1283.15 1932.02 1265.65 1930.97 1248.93 1928.99C1181.36 1921 1114.7 1902.6 1045.93 1907.56C1005.41 1910.47 965.153 1916.96 924.649 1920.28C906.684 1921.74 896.747 1909.39 890.046 1893.49C883.176 1877.2 877.832 1855.16 854.629 1859.06C825.307 1864 817.051 1888.48 814.076 1914.87C813.645 1918.68 812.933 1922.47 812.352 1926.27C809.067 1924.02 805.355 1922.22 802.569 1919.48C759.008 1876.61 762.84 1817.34 822.768 1791.88C913.559 1753.31 963.704 1680.84 1013.69 1604.14C1033.88 1573.16 1061.82 1547.15 1102.15 1566.41C1143.82 1586.3 1136.01 1627.46 1128.34 1661.26C1107.79 1751.7 1133.26 1841.58 1191.19 1866.2C1243.44 1888.41 1300.29 1891.58 1354.55 1905.47C1380.47 1912.1 1405.1 1921.59 1426.18 1938H1528.22C1498.34 1921.79 1468.63 1905.19 1438.06 1890.41C1388.42 1866.42 1333.9 1859.57 1280.7 1847.6C1199.88 1829.41 1163.09 1747.52 1179.21 1657.39C1200.38 1539.03 1284.65 1475.08 1370.35 1409.38C1445.45 1351.84 1512.36 1288.3 1511.01 1183.39C1510.17 1117.27 1481.29 1062.41 1435.6 1016.42C1366.8 947.139 1375.56 871 1410.59 789.895C1445.48 709.182 1471.22 626.856 1439.34 537.572C1426.68 502.092 1397.9 484.616 1370.41 464.413C1322.54 429.194 1321.21 395.313 1373.61 367.513C1437.88 333.428 1467.25 282.585 1480.29 213.117C1496.55 126.425 1569.14 98.8913 1653.87 139.662C1713.47 168.325 1761.68 215.946 1824 239.643C1862.36 254.227 1900.36 254.048 1938 239.643V183.097C1825.94 236.688 1747.62 167.385 1668.24 102.714C1620.06 63.4695 1567.69 45.979 1504.6 59.8697C1483.33 64.5499 1445.01 71.299 1444.8 36.3423C1444.58 1.61823 1477.62 4.06496 1503.46 0.004845H1366.77C1370.36 59.1962 1397.05 113.116 1406.61 170.985C1419.9 251.32 1378.79 305.298 1320.49 350.865C1300.63 366.369 1280.4 381.757 1258.76 394.548C1235.73 408.172 1205.55 423.448 1189.48 391.864C1172.88 359.281 1205.81 344.949 1228.63 332.624C1272.66 308.845 1327.65 300.424 1342.08 239.479C1356.61 178.107 1334.13 121.745 1322.43 63.7505C1318.16 42.6651 1315.42 21.2792 1312.14 0H1259.82C1267.11 22.1756 1274.55 44.3075 1281.55 66.58C1300.05 125.529 1324.95 185.874 1275.97 241.378C1243.19 278.529 1195.12 300.065 1166.05 341.369C1126.2 397.959 1084.8 451.806 1017.45 478.686C1001.85 484.907 979.659 491.186 980.899 511.787C982.256 534.118 1004.55 543.357 1022.29 553.091C1076.89 583.018 1138.9 573.924 1196.94 585.77C1226.66 591.841 1257.55 599.651 1268.43 632.563C1276.72 657.665 1260.93 678.237 1242.06 691.033C1204.8 716.345 1166.19 739.591 1126.38 760.665C1030.26 811.407 944.988 873.398 897.115 975.081C884.29 1002.32 874.019 1032.33 891.252 1061.61C900.705 1077.66 918.239 1083.73 936.824 1081.25C971.001 1076.7 998.559 1057.2 1026.68 1039.27C1085.06 1002.05 1141.96 957.357 1213.22 953.094C1289.28 948.544 1345.77 1001.63 1406.47 1037.77C1457.89 1068.4 1489.15 1115.97 1479.41 1178.53C1461.45 1293.78 1389.72 1372.85 1296.17 1434.38C1266.57 1453.85 1232.39 1471.79 1196.71 1452.9C1163.82 1435.46 1168.46 1400.71 1174.83 1371.59C1188.47 1309.28 1165.46 1272.23 1111.67 1238.28C1042.6 1194.68 1041.27 1158.08 1097.48 1108.84C1138.26 1073.13 1185.66 1035.89 1242.02 1045.79C1328.43 1060.99 1373.37 1128.33 1374.52 1221.89C1374.67 1233.93 1372 1250.04 1387.76 1255.37C1392.74 1257.06 1402.46 1252.36 1406.6 1247.62C1423.07 1228.65 1429.58 1205.33 1431.25 1180.63C1435.9 1111.75 1387.81 1080.77 1337.19 1053.92C1297.54 1032.89 1261.61 996.83 1212.12 1004.98C1146.74 1015.78 1102.02 1068.4 1043.88 1094.93C993.225 1118.05 985.953 1149.98 1021.18 1193.45C1037.05 1213.04 1056.71 1230.56 1077.42 1245.07C1157.85 1301.41 1167.28 1340.82 1114.38 1412.89C1086.97 1450.23 1051.42 1483.7 1032.77 1524.92C989.998 1619.39 930.841 1689.02 829.275 1725.81C720.858 1765.1 689.836 1864.84 753.853 1938H1299.26ZM984.867 1017.45C970.672 1031.45 946.592 1051.26 930.952 1030.82C908.491 1001.46 938.287 977.571 956.442 958.007C1033.71 874.716 1131.91 818.296 1223.28 753.005C1259.39 727.201 1292.99 696.096 1303.65 650.64C1313.43 608.973 1279.21 595.45 1250.6 579.796C1242.07 575.131 1227.56 573.716 1229.07 562.199C1229.61 558.018 1247.55 553.725 1257.62 553.57C1312.41 552.727 1347.46 585.79 1347.46 652.273C1342.61 716.275 1292.1 767.787 1232.81 808.437C1142.94 870.036 1062.12 941.243 984.867 1017.45ZM1137.43 939.678C1134.68 940.536 1131.72 940.734 1128.86 941.238C1129.87 938.186 1130.29 934.731 1132.01 932.149C1168.65 877.018 1229.08 850.898 1279.71 813.311C1355.39 757.109 1400.58 649.448 1368.32 585.862C1344.16 538.241 1303.36 518.517 1243.8 518.604C1213.76 518.255 1178.78 530.716 1143.25 540.828C1128.17 545.13 1107.94 554.171 1099.5 536.584C1091.26 519.437 1110.26 509.18 1123.68 502.029C1228.51 446.186 1389.11 460.997 1422.13 597.248C1441.76 678.252 1405.05 746.033 1355.88 806.223C1299.09 875.69 1221.38 913.428 1137.43 939.654V939.678Z" fill="#D6F3DD"/>
<path d="M1203.01 0H1163.64C1188.29 29.884 1207.44 62.2922 1212.41 102.278C1218.61 152.07 1207.83 198.01 1171.65 231.911C1107.41 292.095 1066.78 373.588 994.876 426.137C941.053 465.469 883.131 455.251 828.639 429.96C763.881 399.921 702.51 405.439 640.324 434.127C636.448 435.914 631.942 436.336 627.727 437.397C628.856 433.036 629.384 428.414 631.206 424.369C652.848 376.214 737.796 357.333 802.665 385.177C867.671 413.07 932.729 449.413 1001.2 392.93C1047.91 354.388 1075.16 300.477 1111.45 253.689C1139.03 218.122 1177.34 188.146 1179.34 138.814C1182.03 73.2661 1146.88 30.6592 1094.68 0.01938H832.641C857.399 8.5708 882.06 17.4614 907.211 24.5981C954.847 38.1641 1002.17 17.0108 1049.77 21.2792C1096.25 25.4556 1130.61 50.2039 1152.94 90.4368C1166.66 115.146 1166.22 140.786 1149.58 165.19C1143.05 174.769 1134.56 180.694 1123.42 179.008C1110.15 177.017 1104.72 165.927 1101.81 154.139C1082.14 74.1963 1059.17 57.3648 979.881 79.3514C928.093 93.7071 889.701 66.672 847.966 49.6806C757.263 12.7424 667.65 70.5868 667.248 167.996C667.146 191.494 665.62 215.05 663.42 238.452C661.889 254.76 658.711 273.495 636.332 270.341C615.871 267.434 608.328 248.539 608.957 231.46C612.441 137.002 630.556 27.2677 741.386 0H659.055C601.84 72.3746 577.358 155.423 586.336 247.303C589.689 281.645 608.623 313.777 649.151 307.822C693.057 301.369 687.257 259.421 691.909 227.88C700.32 170.777 692.185 106.241 756.769 74.2302C799.405 53.0915 840.132 67.612 874.754 94.148C904.614 117.031 933.335 125.558 972.027 121.493C1057.54 112.506 1088.19 155.006 1067.47 244.978C1048.54 327.134 981.858 397.804 923.02 396.539C879.095 395.57 846.852 364.693 808.513 349.358C733.769 319.455 673.556 351.825 616.874 396.839C530.769 465.222 438.578 520.29 325.767 530.125C315.297 531.036 302.85 529.486 300.462 517.897C297.792 504.931 310.748 501.317 320.326 497.94C372.919 479.345 428.031 467.707 477.159 439.597C550.696 397.508 558.918 333.336 546.515 256.543C531.883 165.98 552.411 79.8456 597.906 0H554.621C519.737 87.0307 524.901 179.265 520.546 270.39C518.017 323.433 506.558 374.378 468.002 413.952C388.273 495.789 268.412 492.349 179.85 408.162C167.806 396.713 151.962 373.593 134.307 388.39C116.429 403.361 134.273 422.402 145.155 437.436C152.583 447.707 159.928 458.177 168.518 467.436C214.138 516.574 254.977 574.157 334.411 566.463C382.628 561.792 420.264 531.937 461.834 511.748C551.849 468.051 642.669 524.423 642.669 624.763C642.669 748.853 515.556 836.354 387.415 809.551C298.751 791 220.204 745.51 132.19 727.075C82.6403 716.697 22.9886 750.563 10.6581 800.089C0.309158 841.576 29.1805 876.679 82.2769 890.995C157.597 911.344 227.811 939.93 277.414 1005.94C329.566 1075.37 348.2 1077.75 421.911 1026.43C483.147 983.797 546.089 964.417 619.927 991.36C687.451 1016 715.494 997.896 716.138 926.141C716.967 834.042 759.404 774.89 843.47 742.264C915.782 714.201 953.645 645.94 935.491 572.069C925.801 532.664 894.212 517.233 857.327 525.644C824.41 533.144 836.493 562.606 841.101 584.181C853.635 642.752 849.25 695.083 795.475 733.092C761.449 757.143 729.268 783.078 713.11 823.645C700.814 854.556 687.713 885.332 664.379 909.741C612.892 963.607 543.322 954.547 478.685 961.059C340.947 974.93 227.099 909.731 112.888 847.202C90.6442 835.021 64.0645 817.579 81.8796 788.199C98.7692 760.336 128.207 769.682 151.342 783.572C228.465 829.866 303.374 878.612 394.629 896.461C472.59 911.693 551.535 892.459 587.717 843.074C657.34 748.058 675.411 640.553 671.637 526.075C669.331 455.861 709.695 424.165 776.289 446.501C882.962 482.271 980.264 479.795 1060.87 390.585C1102.61 344.402 1135.24 289.852 1186.27 252.226C1230.87 219.343 1251.65 177.361 1242.96 121.047C1236.4 78.1983 1218.66 39.5352 1203.01 0Z" fill="#D6F3DD"/>
<path d="M1743.04 1829.56C1649.05 1745.99 1599.37 1661.07 1676.97 1547.13C1718.9 1485.6 1812.7 1464.59 1904.96 1495.72C1915.77 1499.37 1926.92 1501.98 1938 1504.79V1401.36C1892.72 1409.69 1847.25 1417.22 1802.25 1426.88C1683.93 1452.28 1593.3 1539.28 1583.8 1654.68C1575.99 1749.53 1638.88 1811.06 1714.05 1860C1735.01 1873.65 1765.31 1887.37 1752.88 1920.62C1749 1931 1741.83 1935.99 1733.35 1937.99H1797.61C1808.35 1888.93 1775.03 1858.01 1743.04 1829.56Z" fill="#D6F3DD"/>
<path d="M1338.87 1782.51C1431.65 1814.55 1508.44 1876.45 1596.39 1917.21C1612.06 1924.47 1627.95 1931.26 1643.83 1938.04H1709.37C1705.98 1937.55 1702.67 1936.91 1699.49 1936.28C1620.34 1920.71 1557.65 1877.66 1502.37 1819.96C1413.71 1727.42 1432.97 1524.31 1537.67 1451.15C1595.84 1410.51 1652.38 1367.39 1707.87 1323.15C1724.22 1310.1 1739.42 1283.9 1720.22 1267.77C1700.31 1251.06 1691.98 1280.49 1680.13 1292.62C1658.54 1314.73 1638.87 1339.84 1613.96 1357.38C1517.78 1425.08 1431.12 1498.94 1407.32 1622.89C1403.12 1644.78 1393.58 1667.53 1365.73 1660.1C1344.17 1654.35 1342.93 1632.37 1346.84 1613.44C1368.16 1509.86 1437.01 1440.13 1515.35 1376.9C1560.01 1340.81 1614.35 1313.14 1635.67 1254.85C1653.28 1206.79 1628.24 1160.02 1626.01 1112.34C1624.17 1072.9 1631.75 1029.3 1606.03 995.952C1586.86 971.093 1553.35 957.081 1535.09 931.814C1486.04 863.984 1502.8 787.487 1521.22 715.044C1541.51 635.281 1559.6 557.49 1540.49 474.398C1522.66 396.805 1523.75 319.004 1559.41 245.108C1565.62 232.254 1575.3 220.302 1591.48 223.727C1608.2 227.269 1610.37 242.138 1610.3 256.707C1610.01 316.664 1592.03 375.09 1598.19 435.972C1603.97 493.143 1642.16 535.232 1685.68 524.883C1761.32 506.903 1844.8 546.307 1871.73 618.648C1898.48 690.436 1883.54 768.843 1899.8 842.831C1907.46 877.715 1912.61 913.568 1937.98 940.632V826.775C1923.93 788.499 1920.54 747.879 1919.71 707.932C1917.13 582.141 1860.19 500.982 1738.66 462.775C1660.87 438.332 1634.44 386.035 1639.28 280.666C1641 243.194 1653.33 198.993 1602.83 188.562C1556.16 178.921 1543.68 222.259 1529.87 255.452C1510.37 302.352 1480.77 341.112 1446.3 378.065C1411.33 415.541 1448.2 442.794 1467.58 470.144C1531.82 560.808 1522.23 659.099 1480.12 749.541C1431.49 854.004 1452.46 931.596 1527.98 1011.91C1604.44 1093.24 1614.02 1220.7 1556.18 1298.53C1511.03 1359.31 1440.61 1394.07 1387.95 1447.69C1325.24 1511.56 1251.43 1569.97 1239.95 1666.55C1231.76 1735.62 1284.3 1763.67 1338.87 1782.51Z" fill="#D6F3DD"/>
<path d="M1194.26 645.494C1193.29 640.504 1184 634.835 1177.68 633.576C1124.68 623.159 1069.52 625 1018.41 603.159C1000.22 595.382 991.045 608.706 989.586 625.024C982.508 704.283 947.391 760.902 868.713 788.068C822.763 803.931 777.094 827.027 766.29 880.123C758.737 917.255 761.615 956.626 760.917 995.017C760.021 1044.04 734.473 1067.38 687.229 1058.27C645.436 1050.2 604.511 1033.82 562.563 1031.14C472.378 1025.32 417.455 1086.48 367.096 1149.1C343.239 1178.76 347.348 1212.15 377.566 1238.05C397.527 1255.16 418.889 1248.92 437.852 1235.38C460.488 1219.22 479.626 1195.87 504.398 1185.36C633.145 1130.72 758.155 1156.87 873.011 1222.11C975.299 1280.2 997.59 1359.28 951.015 1437.28C907.895 1509.47 833.766 1530.31 761.179 1554.67C664.114 1587.22 578.977 1632.71 552.727 1744.68C538.56 1805.1 508.153 1855.93 440.716 1866.43C379.771 1875.94 341.17 1835.51 302.997 1795.67C270.719 1761.98 240.782 1724.02 195.123 1707.27C115.427 1678.04 56.2601 1717.93 0 1765.69V1835.29C16.6813 1810.92 32.04 1785.48 57.171 1768.14C131.614 1716.79 195.205 1728.95 251.397 1801.88C289.494 1851.34 330.419 1898.63 379.305 1938.03H562.204C535.106 1824.01 586.129 1735.99 663.857 1659.2C713.489 1610.17 782.312 1592.14 842.444 1560.02C922.188 1517.43 989.446 1462.73 1007.25 1367.44C1020.31 1297.57 970.754 1263.56 923.719 1228.3C889.673 1202.78 846.199 1185.01 838.689 1135.4C837.497 1127.51 841.785 1118.79 843.534 1110.45C847.463 1112.34 852.42 1113.3 855.123 1116.27C861.3 1123.11 866.068 1131.21 871.95 1138.34C909.077 1183.36 956.587 1216.62 1001.43 1252.94C1062.74 1302.58 1060.85 1362.6 1011.88 1448.86C947.798 1561.75 841.17 1617.91 734.778 1676.16C656.561 1718.98 583.76 1839.79 626.735 1938H687.457C632.752 1824.1 693.605 1704.18 806.009 1666C855.477 1649.2 909.925 1640.81 943.801 1593.63C983.249 1538.71 1004.53 1472.5 1051.93 1422.32C1074.37 1398.58 1098.35 1373.18 1094.47 1336.72C1089.33 1288.54 1047.12 1269.05 1015.78 1241.81C957.798 1191.42 887.27 1149.69 862.948 1072.35C830.167 968.108 885.666 888.51 951.282 815.743C1013.3 746.944 1100.87 717.389 1177.63 671.27C1187.03 665.63 1196.62 657.49 1194.26 645.494ZM879.159 872.1C847.444 929.508 836.213 992.067 826.635 1056.08C815.283 1131.97 758.945 1167.35 684.192 1136.64C585.126 1095.94 502.717 1107.18 429.068 1185.09C420.74 1193.9 403.39 1206.77 396.185 1194.01C383.729 1171.94 403.06 1153.24 416.844 1137.32C487.131 1056.11 569.888 1042.73 668.271 1084.9C706.062 1101.1 758.771 1123.66 781.862 1061.36C793.659 1029.53 792.458 992.871 797.133 958.394C799.125 917.148 796.537 873.892 829.784 842.056C843.868 828.567 862.851 815.496 880.995 827.22C898.806 838.703 886.974 857.943 879.159 872.1Z" fill="#D6F3DD"/>
<path d="M908.239 1362.56C895.23 1350.03 878.311 1383.75 864.765 1398.24C835.612 1429.44 801.852 1447.48 759.773 1430.05C720.316 1413.7 682.002 1404.08 640.194 1420.22C554.137 1453.46 480.42 1513.19 385.982 1529.91C305.225 1544.2 212.531 1499.78 187.419 1421.75C167.719 1360.57 183.761 1295.29 168.432 1233.28C143.921 1134.17 97.869 1051.85 0 1009.21V1055.24C73.9589 1091.53 107.559 1158.83 126.164 1233.63C151.319 1334.82 165.81 1438.67 132.976 1540.47C112.83 1602.93 59.8551 1635.36 0 1655.78V1695.47C137.453 1592.88 245.797 1626.59 347.614 1743.92C401.394 1805.89 457.397 1806.12 487.577 1730.08C532.722 1616.31 602.679 1533.65 723.557 1499.02C781.431 1482.45 846.499 1481.38 890.341 1430.9C907.522 1411.12 928.893 1382.45 908.239 1362.56ZM689.967 1476.86C610.509 1518.62 548.783 1585.42 471.942 1630.67C444.529 1646.81 414.286 1654.76 378.433 1654.95C326.747 1652.97 276.96 1633.19 231.387 1602.58C221.649 1596.04 208.132 1586.21 216.034 1571.26C226.455 1551.52 245.792 1553.71 262.27 1560.48C384.926 1610.82 481.264 1552.73 576.71 1486.67C608.866 1464.38 642.214 1441.97 684.967 1445.51C694.022 1446.26 702.249 1450.4 702.191 1457.72C702.128 1464.28 696.013 1473.69 689.967 1476.86Z" fill="#D6F3DD"/>
<path d="M820.961 1249.16C728.257 1209.6 630.286 1223.89 533.953 1231.38C514.34 1232.9 493.739 1251.05 497.586 1274.72C500.135 1290.39 521.327 1287.97 533.759 1284.96C603.527 1268.04 673.78 1257.52 745.374 1268.85C766.595 1272.21 799.265 1269.71 799.192 1299.93C799.115 1331.39 768.146 1329 745.931 1327.04C680.243 1321.22 615.499 1314.06 550.489 1336.58C414.165 1383.81 334.005 1348.93 300.133 1208.67C260.123 1043 158.78 956.733 0 926.006V952.435C1.07769 952.591 2.14186 952.829 3.18317 953.148C137.017 995.784 243.863 1153.89 250.651 1316.29C252.827 1368.23 262.594 1420.14 312.609 1448.76C369.829 1481.5 423.443 1456.76 471.733 1426.07C561.196 1369.23 648.033 1315.34 761.925 1361.86C792.792 1374.46 832.608 1359.88 849.285 1323.81C863.641 1292.77 849.629 1261.4 820.961 1249.16Z" fill="#D6F3DD"/>
<path d="M575.717 561.753C551.322 526.211 500.178 521.84 455.653 553.435C419.315 579.2 389 614.869 340.051 618.052C263.272 623.043 214.207 575.663 165.631 526.685C99.5744 460.101 80.2768 456.137 0 497.179V562.02C76.1392 524.229 132.753 572.679 193.408 608.115C301.141 670.984 370.584 663.498 475.735 582.301C490.421 570.959 510.387 555.101 525.479 572.306C543.745 593.139 528.144 616.817 511.966 632.733C439.388 704.133 351.19 705.965 258.239 688.208C195.849 676.289 146.004 634.269 85.1703 619.409C53.9249 611.744 26.5894 622.374 0 636.318V695.883C29.695 671.691 62.8251 651.992 101.774 663.939C163.994 683.029 223.19 712.389 285.782 729.783C372.547 753.901 461.113 772.419 544.021 713.479C590.606 680.378 606.657 606.836 575.717 561.753Z" fill="#D6F3DD"/>
<path d="M1938 1015.75C1925.6 1002.25 1912.49 989.194 1902.79 973.966C1851.69 893.786 1850.19 801.257 1841.11 711.023C1832.87 628.901 1764.16 571.86 1684.62 583.668C1617.01 593.702 1567.07 660.858 1564.19 741.382C1562.35 792.783 1551.35 844.987 1583.92 891.228C1601.47 916.136 1638.61 916.829 1653.99 944.596C1676.32 984.901 1662.44 1029.04 1665.28 1071.38C1669.01 1126.92 1684.22 1176.47 1732.79 1209.13C1804.39 1257.27 1852.25 1250.86 1937.98 1181.15L1938 1015.75ZM1856.12 1211.56C1803.8 1225.69 1763.48 1202.51 1732.55 1161.88C1705.02 1125.73 1700.36 1082.53 1699.97 1038.66C1699.78 989.02 1714.44 934.693 1667.99 897.236C1641.57 875.918 1603.52 871.33 1591.67 830.113C1567.59 746.377 1612.5 645.17 1686.28 624.821C1744.07 608.886 1797.55 655.592 1816.28 736.067C1835.8 819.968 1826.73 910.317 1871.59 988.351C1893.21 1025.95 1922.92 1059.99 1924.37 1106.06C1925.95 1156.37 1908.87 1197.31 1856.12 1211.56Z" fill="#D6F3DD"/>
<path d="M395.575 0H313.956C298.307 29.4528 280.913 58.1885 268.35 88.9058C246.979 141.154 263.185 182.996 310.124 214.101C328.05 225.985 350.071 236.388 350.512 262.294C350.623 268.738 343.215 279.421 337.236 281.155C309.62 289.188 287.095 275.341 268.709 257.313C194.425 184.444 182.317 94.2304 233.107 3.53201C233.731 2.39104 234.282 1.21129 234.755 0H197.972C161.077 79.1285 178.95 207.196 238.209 270.792C267.444 302.178 302.032 327.449 347.479 308.345C386.437 291.974 388.55 253.839 386.941 218.417C383.608 145.229 378.676 72.1905 395.575 0Z" fill="#D6F3DD"/>
<path d="M1938 303.67C1876.17 335.676 1824.93 308.345 1772.59 272.25C1750.9 257.298 1721.93 212.574 1695.3 256.872C1674.58 291.325 1685.76 335.225 1714.47 368.2C1751.99 411.296 1808.53 422.639 1855.42 450.182C1887.21 468.87 1913.56 493.201 1938 519.95V303.67Z" fill="#D6F3DD"/>
<path d="M497.853 0H459.791C457.761 5.88183 455.673 11.7443 454.151 17.7521C433.211 100.718 450.275 186.256 437.111 269.828C428.109 326.926 384.582 381.04 332.634 390.139C285.531 398.375 245.463 378.705 219.862 339.785C152.007 236.615 119.444 124.032 137.041 0H96.9004C95.5341 6.98649 93.8287 13.9972 94.3326 20.8335C103.475 144.633 140.753 262.473 205.511 365.192C257.943 448.39 353.201 473.41 429.752 380.26C479.999 319.116 486.211 246.61 486.826 171.712C487.296 114.342 479.476 56.1439 497.853 0Z" fill="#D6F3DD"/>
<path d="M1599.94 1829.16C1503.39 1710.84 1510.44 1582.45 1617.13 1473.77C1705.79 1383.45 1823.21 1362.82 1938 1335.05V1251.67C1821.24 1289.39 1730.18 1370.82 1629.93 1436.4C1460.44 1547.27 1457.34 1756.48 1622.55 1868.84C1627.98 1872.54 1634.15 1875.14 1639.99 1878.3C1636.2 1873.4 1632.52 1868.4 1628.59 1863.62C1619.08 1852.08 1609.38 1840.73 1599.94 1829.16Z" fill="#D6F3DD"/>
<path d="M1751.47 1756.72C1809.74 1803.06 1861.93 1855.04 1853.45 1938H1906.33C1894 1851.25 1844.72 1787.95 1776.48 1735.19C1741.6 1708.21 1718.63 1671.67 1731.83 1625.21C1745.02 1578.75 1780.62 1559.9 1827.45 1562.22C1870.04 1564.34 1902.49 1590.72 1938.02 1609.67V1563.07C1918.51 1555.96 1898.62 1549.62 1880.03 1540.6C1816.08 1509.57 1744.25 1525.87 1711.61 1580.19C1676.86 1637.94 1696.23 1712.8 1751.47 1756.72Z" fill="#D6F3DD"/>
<path d="M74.8892 1254.57C65.4414 1204.34 45.95 1157.47 0 1128.36V1196.47C38.76 1247.64 43.416 1308.35 44.3511 1369.77C44.9955 1412.21 32.5051 1449.59 0 1477.82V1581.3C28.8471 1570.4 48.1399 1548.26 61.3668 1521.63C104.419 1434.92 91.7401 1344.19 74.8892 1254.57Z" fill="#D6F3DD"/>
<path d="M104.851 226.363C86.7691 150.859 42.8492 81.3379 49.7049 0H20.7996C13.0815 56.2941 38.2755 105.829 55.4753 156.852C84.4483 242.793 65.6497 317.435 0 373.52V432.053C71.0035 416.728 124.686 309.208 104.851 226.363Z" fill="#D6F3DD"/>
<path d="M65.6788 1938C78.0433 1887.13 104.991 1848.6 164.081 1851.2C215.733 1853.46 238.209 1902.52 271.155 1933.93C272.502 1935.21 273.762 1936.59 274.988 1938H309.387C294.276 1919.1 279.494 1899.95 263.36 1882.01C229.997 1844.98 203.606 1795.79 147.046 1791.68C71.7545 1786.2 39.6176 1862.98 21.9139 1938H65.6788Z" fill="#D6F3DD"/>
<path d="M1938 39.3075C1913.87 55.7078 1892.46 76.5025 1862.85 84.0317C1799.84 100.064 1754.41 68.0432 1711.05 29.4964C1699.67 19.38 1687.87 9.74329 1676.17 0H1575.5C1621.73 7.18513 1660.08 32.6311 1696.99 61.1487C1769.98 117.52 1843.41 170.617 1938 113.528V39.3075Z" fill="#D6F3DD"/>
<path d="M1764.31 0C1783.02 19.4672 1803.03 37.6069 1831.63 39.729C1862.99 42.0449 1881.78 21.6911 1899.16 0H1764.31Z" fill="#D6F3DD"/>
<path d="M19.0312 180.772C15.8771 156.692 13.2172 131.682 0 110.263V300.25C0.232457 300.027 0.43594 299.777 0.605625 299.503C22.6601 262.449 24.3946 221.649 19.0312 180.772Z" fill="#D6F3DD"/>
<path d="M212.415 1938C201.306 1920.34 186.814 1905.57 165.22 1904.77C142.933 1903.93 129.886 1918.84 122.129 1938H212.415Z" fill="#D6F3DD"/>
<path d="M1318.89 1234.27C1314.37 1270.61 1317.25 1319.67 1266.68 1339.31C1234.19 1351.91 1241.49 1321.13 1239 1304.43C1232.33 1259.79 1206 1228.94 1171.06 1203.45C1158.21 1194.08 1137.22 1186.98 1140.85 1168.35C1145.82 1142.8 1170.16 1131.81 1192.2 1123.81C1270.4 1095.45 1318.89 1135.45 1318.89 1234.27Z" fill="#D6F3DD"/>
<path d="M795.095 625.785C796.611 665.349 785.032 696.667 742.527 707.815C716.252 714.71 711.31 695.887 711.722 677.776C712.914 624.743 715.734 571.719 719.28 518.788C720.152 505.779 724.125 489.64 740.971 488.812C765.143 487.625 770.88 509.161 777.338 525.987C789.54 557.824 795.567 591.693 795.095 625.785Z" fill="#D6F3DD"/>
<path d="M907.578 346.417C863.266 318.801 807.587 292.696 763.023 253.815C723.357 219.197 735.469 135.66 775.315 119.148C813.697 103.281 838.232 133.935 864.593 153.325C895.049 175.728 926.464 184.575 964.812 178.136C1018.51 169.115 1032.43 188.204 1015.57 248.02C1001.7 297.265 972.835 334.237 907.578 346.417Z" fill="#D6F3DD"/>
<path d="M985.165 1862.04C945.019 1859.78 940.072 1838.94 955.683 1808.98C977.04 1767.98 999.23 1727.42 1022.25 1687.3C1029.19 1675.19 1038.73 1660.1 1055.03 1663.87C1074.22 1668.31 1080.99 1687.95 1079.94 1704.11C1077.15 1746.74 1080.42 1791.7 1052.07 1828.5C1035.14 1850.48 1010.91 1859.51 985.165 1862.04Z" fill="#D6F3DD"/>
<path d="M1751.22 1025.2C1752.51 964.886 1762.22 902.822 1714.53 852.918C1693.35 830.762 1655.72 828.601 1643.08 797.259C1626.99 757.394 1655.68 703.682 1702.24 696.139C1753.59 687.81 1757.95 735.669 1767.64 768.402C1792.46 852.371 1784.03 944.353 1827.6 1024.04C1843.21 1052.63 1865.67 1078.04 1870.9 1111.31C1873.89 1130.41 1868.12 1149.08 1847.57 1155.44C1810.89 1166.81 1788.5 1145.06 1770.43 1117.32C1752.14 1089.27 1749.53 1057.6 1751.22 1025.2Z" fill="#D6F3DD"/>
</svg>
