<svg width="176" height="99" viewBox="0 0 176 99" fill="none" xmlns="http://www.w3.org/2000/svg">
<g style="mix-blend-mode:hard-light" opacity="0.4">
<path d="M174.053 71.3008C172.743 67.3198 169.967 63.9731 166.278 61.9262C162.589 59.8794 158.257 59.2824 154.144 60.2541C98.8416 72.8721 55.5616 54.9926 32.6712 9.97268C30.8238 6.29975 27.6728 3.43077 23.8218 1.9152C19.9708 0.399643 15.6905 0.34405 11.8006 1.75911L10.935 2.09241C8.75575 2.91903 6.77391 4.18536 5.11537 5.81095C3.45683 7.43653 2.15782 9.38585 1.30086 11.5351C0.443897 13.6844 0.0477097 15.9866 0.13745 18.2956C0.227189 20.6046 0.800909 22.8699 1.82215 24.9476C31.8778 84.1568 91.0272 109.464 162.055 93.3227C164.307 92.8039 166.427 91.8312 168.282 90.4653C170.138 89.0994 171.689 87.3696 172.84 85.3838C173.99 83.3979 174.715 81.1987 174.97 78.9232C175.224 76.6476 175.002 74.3447 174.317 72.1579L174.053 71.3008Z" fill="#21A560"/>
</g>
</svg>
