<svg width="1428" height="581" viewBox="0 0 1428 581" fill="none" xmlns="http://www.w3.org/2000/svg">
<path d="M-0.545174 -1.57071C-7.20966 9.13881 -11.1198 26.7794 4.56699 30.9878C18.1723 34.6378 35.8511 24.4249 43.8525 19.6866C50.9137 15.5042 58.5429 11.1512 63.4949 4.88734C80.0578 -16.0595 89.2345 -63.0149 81.2542 -100.591C79.2816 -109.88 77.4757 -118.905 74.5271 -127.23C72.262 -133.624 68.5428 -141.041 68.069 -148.487C59.9075 -148.487 51.7443 -148.487 43.5827 -148.487C44.4247 -140.431 45.6471 -131.523 47.0807 -122.925C49.2735 -109.778 45.7934 -95.3377 43.3137 -85.523C33.8623 -48.1132 16.8792 -29.5697 -0.545174 -1.57071Z" fill="#4D4B67"/>
<path d="M-69.4292 -103.82C-69.4292 -83.8211 -69.4292 -63.8154 -69.4292 -43.8155C-58.3483 -52.8198 -55.7207 -95.9082 -69.4292 -103.82Z" fill="#4D4B67"/>
<path d="M33.0894 367.067C49.1256 372.494 72.9162 374.636 86.0981 365.453C101.574 354.672 105.693 332.813 94.4393 314.328C85.5332 299.698 71.4427 289.778 62.4188 275.311C54.1012 261.977 48.7664 230.404 52.4627 207.503C59.5198 163.785 68.7932 125.244 87.4432 93.4138C101.312 69.7434 123.03 48.8486 130.227 19.9556C139.223 -16.1619 112.135 -69.5071 134.263 -97.363C144.646 -110.434 186.005 -98.3521 198.035 -93.596C231.759 -80.2621 256.517 -57.7199 290.329 -44.8932C308.213 -38.1084 334.75 -36.9567 353.293 -44.0861C364.415 -48.3619 374.486 -53.1279 383.43 -59.4234C394.773 -67.4094 415.551 -86.2935 411.952 -108.126C410.13 -119.179 406.669 -127.951 401.727 -135.842C399.345 -139.644 393.775 -143.893 392.848 -148.489C383.879 -148.489 374.908 -148.489 365.94 -148.489C365.94 -148.399 365.94 -148.309 365.94 -148.22C372.983 -137.123 380.049 -125.894 383.161 -110.818C391.263 -71.5649 342.506 -49.4608 305.128 -58.8861C285.732 -63.7772 275.389 -74.5591 261.538 -84.4485C250.686 -92.0721 239.831 -99.6972 228.979 -107.32C216.348 -116.866 204.837 -127.346 190.77 -135.573C181.401 -141.053 169.134 -144.778 158.48 -148.489C139.288 -148.489 120.089 -148.489 100.897 -148.489C97.4603 -137.114 101.526 -128.262 103.857 -117.545C104.395 -112.344 104.933 -107.14 105.471 -101.939C105.92 -88.0376 106.369 -74.1324 106.817 -60.2312C107.638 -50.8587 108.822 -39.4949 107.355 -30.3638C107.265 -26.9559 107.175 -23.5465 107.086 -20.1386C105.346 -9.7404 105.068 0.470093 101.704 9.19083C87.2124 46.7558 60.2561 53.0351 16.6744 61.1227C-2.53314 64.6874 -32.4372 65.2246 -46.2896 56.8176C-68.0045 43.6389 -52.1275 16.5071 -41.9845 3.2708C-30.1014 -12.2372 -15.6793 -25.6328 -4.31386 -41.6649C3.45352 -52.6223 9.2175 -64.82 14.5215 -78.2595C19.7409 -91.4853 24.1281 -112.617 20.1725 -130.46C18.6445 -137.351 16.4086 -143.004 13.7144 -148.489C-13.9977 -148.489 -41.7187 -148.489 -69.4308 -148.489C-69.4308 -143.198 -69.4308 -137.904 -69.4308 -132.613C-60.728 -132.42 -53.2507 -128.654 -46.8284 -125.886C-25.3631 -116.636 -14.2943 -96.1886 -25.3021 -68.0344C-31.1921 -52.9694 -38.9196 -40.1297 -47.9045 -28.2108C-54.9169 -18.909 -63.8578 -10.3784 -69.4308 0.311615C-69.4308 46.1398 -69.4308 91.9825 -69.4308 137.811C-62.1519 145.363 -43.8936 149.001 -29.3382 145.614C-8.14107 140.682 3.69003 125.034 25.2846 121.397C38.7436 119.129 50.2074 126.21 53.538 134.313C56.8223 142.302 51.2615 153.202 46.0039 155.57C37.5367 155.096 39.6368 138.206 23.6705 141.309C12.6847 143.444 3.49335 148.883 -5.92797 152.879C-24.0351 160.559 -44.1781 166.82 -69.4308 166.333C-69.4308 180.145 -69.4308 193.96 -69.4308 207.772C-53.2873 207.15 -38.5165 203.424 -24.7641 199.968C-20.728 199.341 -16.6911 198.713 -12.6559 198.085C-7.5437 197.008 -2.43073 195.932 2.68142 194.855C-1.19212 199.443 -8.70999 201.935 -14.0018 205.081C-28.1118 213.467 -47.2064 221.433 -69.4316 220.956C-69.4316 233.422 -69.4316 245.892 -69.4316 258.358C-54.404 258.496 -26.2595 256.591 -16.961 263.201C-10.242 267.976 -8.93837 276.454 -4.58369 283.651C-2.70625 286.753 -0.0518341 289.266 2.14338 291.992C4.08502 294.403 9.00293 300.411 13.7136 297.912C14.4312 297.285 15.1489 296.656 15.8665 296.028C17.1377 288.797 13.0658 282.224 11.0234 276.924C5.05138 261.43 2.75456 246.47 -14.808 242.481C-25.3501 240.088 -48.0427 245.378 -53.0175 237.369C-50.5565 234.44 -33.5295 232.249 -28.8002 230.642C-23.0606 228.848 -17.3186 227.054 -11.579 225.26C21.2973 217.577 23.3259 254.744 31.7427 274.233C36.0201 284.136 47.4692 299.856 41.1607 315.132C35.8503 327.991 16.2843 323.917 6.4493 318.092C-2.13083 313.011 -9.93642 305.39 -15.8841 297.642C-20.3111 291.876 -24.5707 285.818 -30.9523 282.036C-39.9746 276.689 -54.9705 277.057 -69.4308 277.193C-69.4308 292.888 -69.4308 308.587 -69.4308 324.281C-51.1604 329.269 -36.3213 338.277 -20.4582 345.27C-2.91513 353.005 14.0948 360.639 33.0894 367.067ZM-33.1037 99.8718C-34.743 102.134 -37.4461 103.133 -40.3688 104.177C-57.8891 110.442 -75.1566 86.9655 -59.7421 78.6145C-48.996 78.3862 -25.1168 88.8527 -33.1037 99.8718ZM49.2345 93.4146C47.9496 92.5766 47.0978 90.7098 47.0816 88.5715C47.0182 80.1157 57.4237 80.1734 63.7647 77.8083C65.8275 77.9879 67.891 78.1667 69.9538 78.3463C72.8309 83.4536 55.4528 97.4718 49.2345 93.4146ZM27.1702 201.045C25.7471 205.317 25.0424 211.331 20.1741 212.078C13.4242 208.786 20.4512 186.442 11.8329 181.403C5.8568 177.908 -4.15456 181.904 -9.15537 183.287C-19.4691 185.798 -29.786 188.31 -40.0997 190.821C-45.5419 192.219 -52.4234 194.361 -58.666 193.781C-58.9351 193.154 -59.2041 192.525 -59.4731 191.897C-56.6212 186.425 -46.2343 184.169 -40.3688 181.672C-27.5437 176.56 -14.7153 171.446 -1.89026 166.335C3.49091 164.23 9.33941 164.03 15.0619 161.761C31.9914 161.505 31.481 188.105 27.1702 201.045Z" fill="#4D4B67"/>
<path d="M1010.11 -62.6516C1003.48 -62.8312 996.838 -63.01 990.202 -63.1896C979.17 -63.6383 968.136 -64.0869 957.105 -64.5347C951.724 -64.6241 946.341 -64.7143 940.96 -64.8037C918.795 -64.8054 903.529 -60.9725 896.024 -46.5064C892.027 -38.8025 890.853 -26.0741 895.755 -18.2531C904.275 -4.65833 927.544 -6.7178 942.575 -12.6021C963.244 -20.6945 984.142 -28.0377 1007.42 -33.8594C1017.13 -36.2854 1026.73 -36.0261 1037.56 -37.8954C1048.22 -39.7347 1063.21 -39.4502 1073.62 -37.3574C1118.83 -28.2661 1140.34 -6.64873 1170.48 16.4584C1212.18 48.4244 1254.84 80.8618 1272.46 136.736C1282.5 168.569 1269.23 192.087 1259.28 215.307C1254 227.622 1249.95 239.618 1245.83 253.248C1243.09 262.285 1239.08 279.318 1241.25 291.995C1242.15 299.08 1243.05 306.167 1243.94 313.253C1248.9 335.448 1255.07 356.475 1265.2 373.795C1279.31 397.905 1299.54 424.641 1297.76 463.399C1296.67 487.18 1288.15 505.801 1280.81 523.673C1274.5 539.025 1269.24 553.873 1264.12 570.492C1258.64 588.29 1256.54 616.12 1262.51 635.071C1266.68 648.319 1273.7 657.8 1281.34 667.361C1289.42 677.45 1301.1 686.637 1313.63 692.116C1319.37 694.625 1325.69 696.599 1332.47 698.036C1374.67 706.98 1404.26 671.981 1414.81 645.296C1418.92 634.89 1424.01 618.937 1421.26 603.59C1419.44 593.377 1417.93 584.191 1414.54 575.605C1406.63 555.613 1395.08 538.645 1388.98 516.677C1383.55 497.147 1387.24 473.529 1392.2 456.941C1394.02 450.864 1393.56 442.92 1389.51 439.72C1383.44 434.92 1370.41 435.717 1363.41 439.182C1349.27 446.182 1343.31 459.185 1338.66 475.777C1337.63 479.428 1335.75 484.82 1336.77 490.038C1337.57 494.072 1339.19 498.014 1341.35 500.801C1344.63 505.048 1352.54 506.595 1352.65 513.717C1347.55 519.596 1329.63 527.786 1319.55 521.251C1314.35 517.876 1313.58 510.83 1312.29 503.492C1310.26 491.964 1315.82 483.902 1318.75 476.854C1323.1 466.357 1329.47 447.512 1324.93 433.532C1320.42 419.616 1304.04 405.787 1296.14 393.17C1283.35 372.746 1275.33 350.277 1270.04 321.864C1268.43 313.177 1267.69 300.131 1269.24 290.651C1269.59 285.629 1269.95 280.605 1270.31 275.583C1272.76 262.951 1275.02 250.976 1278.65 239.526C1285.61 217.581 1296.15 198.039 1296.41 169.835C1296.74 135.359 1287.09 105.808 1275.15 82.3848C1272.1 76.3925 1259.9 58.6007 1264.66 50.9024C1269.23 43.5097 1280.19 40.557 1287.8 36.1032C1304.79 26.165 1324.42 18.7527 1339.46 6.77373C1349.75 -1.41791 1355.64 -16.1627 1362.6 -27.6687C1377.81 -52.8044 1391.36 -81.0326 1416.69 -96.0147C1441.59 -110.742 1495.83 -107.277 1496.87 -73.9503C1497.14 -73.9503 1497.41 -73.9503 1497.68 -73.9503C1497.59 -74.399 1497.5 -74.8476 1497.41 -75.2954C1497.5 -82.3809 1497.59 -89.4672 1497.68 -96.5527C1497.68 -102.921 1497.68 -109.29 1497.68 -115.657C1485.53 -134.895 1449.77 -153.606 1421.53 -136.914C1405.74 -127.582 1396.37 -111.663 1386.82 -96.0147C1367.96 -65.1036 1353.5 -29.0032 1324.13 -8.56436C1315.21 -2.35988 1304.03 3.15053 1292.91 6.77292C1285.58 9.164 1278.23 10.8358 1270.04 12.4239C1249.82 16.3487 1228.2 11.2414 1214.88 4.62076C1181.84 -11.7983 1161.63 -40.9253 1141.15 -69.9143C1126.27 -90.9927 1108.61 -112.044 1109.4 -148.485C1093.08 -148.485 1076.75 -148.485 1060.43 -148.485C1060.43 -148.396 1060.43 -148.306 1060.43 -148.216C1063.91 -138.369 1067.03 -128.55 1069.31 -117.811C1074.54 -93.1368 1062.8 -73.7748 1046.98 -67.2241C1041.4 -64.9143 1035.48 -64.7111 1028.68 -63.457C1023.62 -62.5248 1015.39 -61.7901 1010.11 -62.6516ZM1321.71 569.684C1325.92 568.876 1330.14 568.069 1334.35 567.262C1362.84 567.142 1381.88 577.256 1390.32 596.86C1405.65 632.439 1380.35 665.443 1350.5 670.856C1310.57 678.097 1276.79 635.494 1291.57 597.667C1296.71 584.504 1307.8 574.055 1321.71 569.684Z" fill="#4D4B67"/>
<path d="M1229.68 -19.0609C1243.13 -13.5473 1263.53 -9.72739 1281.34 -13.9488C1288.75 -15.7043 1295.9 -17.5907 1302.33 -20.4068C1340.1 -36.9478 1347.07 -73.5212 1366.91 -107.319C1372.23 -116.376 1377.61 -125.271 1383.6 -133.689C1387.27 -138.532 1390.95 -143.376 1394.63 -148.219C1380.37 -148.308 1366.1 -148.398 1351.84 -148.488C1351.68 -133.609 1346.06 -119.929 1341.35 -108.933C1327.95 -77.6296 1313.15 -56.0716 1275.43 -48.6594C1269.12 -47.4208 1259.05 -46.5755 1251.75 -47.8523C1245.12 -49.0113 1238.67 -49.8655 1232.91 -51.8884C1221.95 -55.7433 1213.17 -61.0237 1204.93 -67.4947C1191.73 -77.8539 1180.74 -94.1933 1175.6 -112.43C1174.18 -117.456 1171.94 -130.859 1175.87 -134.764C1175.87 -134.943 1175.87 -135.122 1175.87 -135.302C1176.74 -134.878 1182.04 -117.66 1183.13 -115.39C1189.12 -102.89 1198.42 -92.4061 1209.23 -84.7151C1215.62 -80.1719 1223.14 -75.9659 1231.3 -73.4139C1283.2 -57.1704 1326.31 -102.109 1325.47 -148.487C1318.12 -148.487 1310.76 -148.487 1303.41 -148.487C1303.32 -141.742 1301.69 -135.186 1300.18 -129.652C1294.32 -108.185 1284.94 -100.395 1261.97 -96.0171C1255.89 -94.8582 1246.92 -94.212 1240.18 -95.4791C1234.93 -96.4649 1229.86 -97.858 1225.38 -99.7842C1207.99 -107.257 1195.96 -127.036 1192.82 -148.487C1177.39 -148.487 1161.96 -148.487 1146.54 -148.487C1143.45 -125.386 1152.07 -106.402 1158.64 -91.4422C1172.95 -58.8723 1196.35 -32.7223 1229.68 -19.0609Z" fill="#4D4B67"/>
<path d="M1240.98 -118.081C1247.26 -116.951 1254.02 -118.685 1257.94 -121.041C1268.08 -127.14 1272.13 -136.738 1277.04 -148.218C1256.32 -148.307 1235.6 -148.398 1214.88 -148.487C1217.39 -131.797 1224.41 -121.069 1240.98 -118.081Z" fill="#4D4B67"/>
<path d="M1496.88 24.2607C1485.5 43.0131 1487.57 77.1849 1493.38 100.679C1494.55 105.522 1495.71 110.366 1496.88 115.209C1496.88 115.389 1496.88 115.567 1496.88 115.747C1496.97 115.747 1497.06 115.747 1497.15 115.747C1498.67 113.593 1497.68 100.512 1497.68 96.6428C1497.68 79.4232 1497.68 62.1987 1497.68 44.98C1497.68 41.3665 1498.41 25.4741 1496.88 24.2607Z" fill="#4D4B67"/>
<path d="M1342.69 650.138C1381.36 643.732 1381.22 585.611 1336.24 586.366C1333.28 587.084 1330.32 587.801 1327.36 588.519C1318.79 592.184 1312.18 600.372 1309.33 609.776C1303.04 630.543 1321.67 653.621 1342.69 650.138Z" fill="#4D4B67"/>
<path d="M504.515 -125.078C524.678 -120.28 552.006 -134.964 555.64 -148.488C527.569 -148.488 499.489 -148.488 471.419 -148.488C477.379 -137.335 490.719 -128.36 504.515 -125.078Z" fill="#4D4B67"/>
<path d="M-69.4292 700.187C-69.4292 710.052 -69.4292 719.92 -69.4292 729.785C-61.5367 729.785 -53.6425 729.785 -45.7499 729.785C-44.9494 728.623 -48.6124 721.605 -48.979 720.906C-53.4287 712.427 -60.7914 704.401 -69.4292 700.187Z" fill="#4D4B67"/>
<path d="M304.051 -81.2179C308.641 -77.5378 315.724 -72.8531 324.771 -74.7598C330.902 -76.0521 336.204 -79.2291 339.57 -83.37C342.302 -86.7315 345.122 -89.9085 346.835 -94.4022C353.738 -112.513 338.548 -130.694 330.96 -140.146C328.27 -142.926 325.578 -145.707 322.888 -148.487C307.641 -148.487 292.39 -148.487 277.144 -148.487C279.834 -141.94 282.526 -135.391 285.216 -128.845C290.228 -112.772 292.294 -90.6449 304.051 -81.2179Z" fill="#4D4B67"/>
<path d="M247.545 -114.045C250.11 -112.015 256.52 -106.876 261.269 -110.009C264.837 -112.363 263.561 -118.881 262.076 -122.656C258.198 -132.514 251.362 -139.882 246.469 -148.488C236.963 -148.488 227.454 -148.488 217.947 -148.488C220.458 -145.529 222.97 -142.568 225.481 -139.608C232.118 -131.089 239.102 -120.73 247.545 -114.045Z" fill="#4D4B67"/>
<path d="M1492.57 533.088C1493.92 536.227 1495.26 539.367 1496.61 542.506C1496.97 542.506 1497.33 542.506 1497.68 542.506C1497.68 529.323 1497.68 516.135 1497.68 502.952C1497.41 502.952 1497.15 502.952 1496.88 502.952C1493.27 510.787 1489.08 521.673 1492.57 533.088Z" fill="#4D4B67"/>
<path d="M-39.5617 678.929C-49.5162 672.741 -59.4747 666.551 -69.4292 660.363C-69.4292 666.103 -69.4292 671.845 -69.4292 677.584C-51.2221 683.326 -15.433 709.718 -12.9224 729.785C-2.25031 729.785 8.42588 729.785 19.098 729.785C19.1874 729.605 19.2776 729.427 19.367 729.247C10.3821 702.339 -17.23 692.556 -39.5617 678.929Z" fill="#4D4B67"/>
<path d="M737.807 116.286C735.116 116.735 732.425 117.183 729.734 117.631C721.582 119.896 714.304 124.055 710.361 130.547C700.713 146.432 708.182 174.296 712.783 189.744C722.965 223.936 723.914 263.759 755.836 276.387C764.064 279.642 777.316 281.623 787.318 278.54C803.715 273.486 816.966 259.158 811.266 236.295C807.381 220.71 800.295 207.64 795.66 192.435C785.021 157.54 783.691 116.084 737.807 116.286Z" fill="#4D4B67"/>
<path d="M1481.54 686.194C1466.61 691.285 1462.53 710.658 1463.78 729.785C1475.08 729.785 1486.38 729.785 1497.68 729.785C1497.68 715.166 1497.68 700.543 1497.68 685.925C1492.62 685.728 1486.13 684.631 1481.54 686.194Z" fill="#4D4B67"/>
<path d="M1469.7 450.482C1463.82 457.81 1458.3 465.308 1455.17 475.506C1452.43 484.43 1450.92 498.311 1452.75 509.41C1455 523.034 1455.7 534.67 1460.01 545.735C1466.59 562.62 1475.15 576.525 1479.65 595.784C1481.87 605.242 1479.47 617.444 1481.27 628.073C1483.9 643.557 1487.51 653.839 1496.88 662.246C1497.15 662.246 1497.41 662.246 1497.68 662.246C1497.68 635.43 1497.68 608.607 1497.68 581.792C1488.76 564.966 1476.96 551.586 1472.39 529.86C1468.24 510.127 1484.08 476.851 1497.68 474.699C1497.68 461.067 1497.68 447.432 1497.68 433.799C1487.31 434.093 1474.69 444.255 1469.7 450.482Z" fill="#4D4B67"/>
<path d="M1468.62 122.206C1455.53 80.4091 1454.43 25.0141 1477.5 -6.41383C1481.16 -11.3943 1491.16 -22.9019 1497.68 -24.1731C1497.68 -34.3974 1497.68 -44.6241 1497.68 -54.8476C1497.5 -54.937 1497.33 -55.0272 1497.15 -55.1166C1494.74 -50.2841 1493.89 -45.3808 1491.23 -41.1245C1472.79 -11.6772 1447.5 7.12323 1438.49 46.8639C1434.25 65.5716 1433.99 96.2966 1437.14 116.824C1438.56 126.061 1440.04 141.697 1438.49 152.073C1437.95 159.338 1437.41 166.604 1436.87 173.869C1433.58 191.668 1429.46 207.167 1423.15 221.496C1411.89 247.063 1390.23 263.898 1380.1 290.111C1373.31 307.66 1378.24 330.528 1387.09 341.773C1391.07 346.824 1396.97 351.469 1403.24 354.151C1438.5 369.231 1469.01 343.513 1497.68 338.544C1497.68 335.226 1497.68 331.907 1497.68 328.588C1480.68 329.934 1469.55 339.448 1454.9 343.118C1438.07 347.337 1417.66 340.643 1411.31 330.471C1403.34 317.72 1407.42 296.605 1413.19 285.267C1428.38 255.455 1452.19 245.958 1497.68 246.519C1497.68 237.819 1497.68 229.117 1497.68 220.419C1488.35 220.905 1451.84 227.057 1450.06 217.459C1454.04 209.779 1484.97 206.995 1497.68 206.965C1497.68 191.091 1497.68 175.211 1497.68 159.338C1480.78 160.296 1472.94 135.999 1468.62 122.206Z" fill="#4D4B67"/>
<path d="M1430.15 376.216C1416.98 378.694 1403.26 374.919 1394.36 371.104C1369.42 360.418 1347.46 337.392 1357.23 299.26C1365.25 267.912 1384.93 249.492 1399.47 224.994C1406.12 213.798 1410.77 200.728 1414 186.246C1421.38 153.21 1411.12 116.054 1405.39 85.8796C1402.79 72.1922 1402.58 53.0789 1405.93 39.867C1411.19 19.1388 1421.14 5.62288 1432.57 -8.5668C1442.62 -21.0562 1456.24 -29.082 1462.7 -45.4304C1469.23 -61.9502 1464.63 -84.3413 1442.52 -80.4108C1421.13 -76.6056 1408.98 -59.7208 1398.39 -44.8923C1385.06 -26.2147 1374.51 -4.62906 1362.07 15.1125C1345.4 41.5689 1326.24 61.3161 1319.55 98.5267C1313.31 133.245 1335.83 155.16 1328.97 189.206C1323.36 217.064 1311.37 237.997 1304.49 264.817C1294.72 302.843 1302.74 346.886 1314.98 375.678C1323.5 395.714 1334.09 414.822 1356.15 421.421C1376.09 427.387 1411.63 421.337 1417.23 441.334C1419.69 450.127 1412.85 458.168 1410.5 464.205C1406.19 475.274 1405.09 493.569 1408.08 506.989C1415.04 538.247 1433.59 557.977 1440.91 591.21C1445.08 610.169 1439.86 630.919 1434.45 644.757C1420.58 680.229 1398.43 709.093 1359.11 719.023C1343.1 723.065 1323.72 719.836 1311.21 714.987C1277.22 701.81 1252.46 672.769 1241.25 636.953C1237.52 625.03 1234.53 606.691 1237.48 591.21C1243.84 557.879 1255.03 532.036 1264.39 502.145C1268.14 490.174 1274.53 470.5 1271.66 453.98C1266.06 421.746 1247.3 405.664 1235.87 379.714C1228.65 363.335 1221.84 346.838 1217.03 327.782C1214.28 316.876 1214.45 305.42 1212.46 293.34C1209.94 278.005 1215.38 256.512 1218.65 245.713C1228.39 213.58 1247.54 168.278 1236.14 127.049C1231.96 111.927 1225.59 99.285 1217.57 88.0326C1204.71 69.9897 1185.05 56.2641 1166.99 43.3659C1145.26 27.8441 1125.69 10.0385 1098.91 -0.49382C1089.8 -4.07884 1079.6 -5.3524 1068.77 -7.22089C1058.15 -9.05444 1044.13 -8.9496 1033.79 -7.22089C1019.82 -4.88426 1007.93 -3.48308 995.853 0.313232C973.442 7.36053 954.189 17.7701 931.543 24.5305C896.868 34.8824 869.967 23.5691 861.314 -4.52989C858.564 -13.4619 858.266 -26.6609 860.507 -36.2813C866.74 -63.0344 881.132 -78.6342 906.251 -86.33C915.88 -89.2803 927.078 -89.3453 938.002 -91.1732C964.533 -95.6124 996.842 -89.0974 1014.42 -102.205C1022.12 -107.948 1028.83 -121.088 1026.26 -135.84C1025.54 -140.055 1024.82 -144.271 1024.11 -148.487C1009.13 -148.487 994.148 -148.487 979.171 -148.487C972.298 -118.77 934.427 -121.182 905.713 -113.238C867.335 -102.62 840.923 -85.1963 826.066 -51.3496C821.503 -40.9546 814.97 -25.8205 817.724 -9.10402C824.042 29.2396 843.385 40.8829 876.921 51.4388C894.07 56.8363 915.17 57.6701 924.817 70.5432C934.161 83.0115 932.083 105.69 932.082 127.05C932.082 132.073 932.082 137.096 932.082 142.118C932.62 148.217 933.158 154.317 933.696 160.415C936.318 174.446 938.715 187.133 943.652 198.625C956.657 228.894 979.528 250.723 1012.54 261.051C1019.43 263.209 1026.18 263.672 1034.06 265.087C1049.05 267.777 1067.59 265.681 1080.08 261.858C1115.86 250.898 1146.19 228.729 1164.3 199.97C1164.66 199.97 1165.01 199.97 1165.37 199.97C1165.73 200.239 1166.09 200.508 1166.45 200.777C1170.17 215.776 1148.84 235.806 1140.62 242.216C1122.26 256.525 1103.29 267.824 1076.58 274.236C1069.83 275.857 1063.39 275.666 1055.86 276.927C1045.83 278.605 1032.51 277.663 1023.57 275.582C1014.54 273.48 1005.62 271.448 997.736 268.048C985.789 262.892 976.618 254.824 967.062 247.329C940.853 226.772 924.372 202.419 915.937 163.645C911.656 143.969 917.833 100.9 909.21 86.6891C901.757 74.4069 882.698 77.9042 866.426 74.3118C846.62 69.9385 830.792 61.9183 820.145 48.4805C811.602 37.6978 804.596 25.8602 799.157 11.8859C789.189 -13.7188 793.284 -46.6885 804.27 -67.7613C825.863 -109.184 853.184 -124.003 899.523 -140.412C906.249 -142.924 912.977 -145.435 919.704 -147.947C919.794 -148.126 919.884 -148.305 919.973 -148.485C897.552 -148.485 875.124 -148.485 852.703 -148.485C844.718 -145.308 834.287 -135.481 827.679 -130.187C804.096 -111.298 787.402 -83.136 779.244 -48.926C770.64 -12.8369 779.461 38.3732 795.12 60.5887C805.764 75.6902 821.641 86.1031 840.325 93.1472C860.899 100.904 880.141 98.4495 890.912 116.557C901.081 133.653 901.817 164.189 907.326 185.71C915.97 219.482 931.762 248.295 956.568 265.895C969.89 275.347 985.553 282.869 1003.66 287.421C1021.96 292.022 1042.01 291.935 1058.01 298.184C1074.86 304.763 1088.13 314.64 1097.83 328.321C1105.52 339.164 1111.34 352.091 1116.13 365.722C1119.13 374.272 1121.08 383.801 1122.86 393.438C1132.25 444.383 1101.09 477.794 1077.92 500.531C1068.84 509.445 1057.22 518.908 1051.82 531.206C1043.12 551.036 1055.57 579.77 1080.08 575.066C1103.17 570.634 1108.46 552.202 1122.86 539.547C1129.17 534.003 1137.35 531.602 1145.73 527.977C1155.66 523.682 1164.62 515.624 1169.14 505.912C1179.62 483.383 1171.8 455.752 1163.76 437.297C1150.47 406.807 1138.11 379.591 1127.7 345.003C1125 336.025 1118.95 315.362 1120.97 303.296C1125.63 275.493 1142.03 269.458 1155.95 252.171C1165.45 240.371 1175.32 229.569 1181.79 214.5C1188.28 199.353 1179.47 175.897 1176.14 160.684C1173.78 149.962 1173.19 139.373 1170.22 129.471C1159.58 94.0745 1142.18 63.5259 1110.21 49.5549C1103.02 46.4112 1095.07 44.346 1086.53 42.5588C1076.79 40.5204 1062.82 41.043 1053.43 42.8278C1041.81 45.0377 1031.44 46.7371 1021.95 50.9C998.935 60.9991 978.925 88.0805 971.096 113.595C954.501 167.68 980.134 216.209 1016.84 232.259C1065.64 253.598 1109.81 222.827 1125.28 187.592C1132.47 171.22 1135.1 147.243 1127.43 128.664C1120.51 111.885 1108.53 98.1715 1093.53 89.3785C1054.09 66.26 1012.02 93.7559 999.888 124.628C988.637 153.255 1001.99 189.287 1018.72 202.122C1045.31 222.513 1078.49 213.997 1092.18 188.13C1095.77 181.361 1098.71 170.634 1096.22 160.146C1095.01 155.076 1093.01 150.142 1090.57 146.153C1085.92 138.579 1078.51 132.198 1068.77 129.74C1046.63 124.149 1026.24 144.23 1030.02 166.066C1031.67 175.553 1035.92 180.644 1043.75 183.825C1050.95 186.756 1060.96 186.88 1064.47 193.512C1064.25 204.243 1046.05 202.556 1037.83 199.97C1022.82 195.246 1015.39 184.379 1012.27 167.681C1010.31 157.249 1014.06 146.956 1017.65 140.773C1025.11 127.906 1033.77 116.309 1049.13 111.444C1053.11 110.182 1056.73 110.624 1061.51 109.83C1071.13 108.229 1080.76 112.143 1086.53 115.75C1096.08 121.718 1104.7 131.641 1109.4 142.388C1133.06 196.465 1076.77 245.1 1025.18 222.842C1013.9 217.975 1003.18 209.97 996.121 200.778C983.334 184.131 973.508 155.301 982.129 126.512C992.632 91.4371 1029.14 49.1453 1079.8 64.3549C1105.52 72.0768 1123.15 86.8541 1135.5 107.946C1139.82 115.316 1143.1 124.195 1145.73 132.97C1161.69 186.236 1125.09 225.819 1091.91 242.754C1076.99 250.371 1050.5 256.437 1028.95 250.019C1019.18 247.11 1009.76 244.013 1001.77 239.256C977.649 224.898 959.484 202.993 951.184 172.794C945.543 152.267 947.997 123.914 954.144 106.331C967.521 68.0643 989.698 38.53 1028.14 25.3392C1041.13 20.8838 1061.98 17.48 1079.54 20.4961C1139.52 30.8025 1167.58 61.4161 1187.17 111.713C1191.57 123.025 1192.89 135.356 1196.05 148.039C1198.02 157.724 1199.99 167.414 1201.97 177.099C1204.22 186.079 1208.47 199.208 1205.19 209.927C1201.44 222.241 1192.65 229.066 1185.55 237.911C1168.4 259.277 1146.74 275.479 1141.15 308.41C1138.55 323.793 1144.33 343.53 1147.88 354.961C1152.48 369.737 1156.86 383.865 1164.03 396.13C1180.77 424.774 1207.65 462.027 1193.36 507.797C1189.58 519.896 1184.13 531.081 1178.02 540.894C1170.51 552.943 1161.41 564.31 1147.88 570.223C1140.44 572.824 1132.99 575.426 1125.55 578.026C1110.17 584.023 1093.95 589.544 1077.65 594.44C1044.18 604.5 1035.99 587.352 1028.41 562.151C1026.07 554.371 1022.11 541.841 1025.45 532.284C1030.79 517.026 1045.04 509.547 1054.24 498.111C1078.38 468.127 1113.81 439.337 1098.64 379.985C1095.79 368.83 1092.39 357.504 1087.07 348.503C1078.83 334.566 1068.24 323.308 1054.24 315.137C1037.57 305.402 1014.99 302.064 995.046 295.764C974.588 289.301 956.051 280.219 940.961 268.318C921.225 252.752 906.812 228.146 898.716 201.048C892.766 181.13 894.09 157.314 884.724 141.582C865.856 109.89 820.827 107.162 790.546 86.9589C776.014 77.2637 767.199 60.1474 746.956 56.5534C736.042 54.6158 725.949 59.2338 718.433 61.6656C702.7 66.7558 688.384 73.044 671.614 76.7338C638.255 84.0737 605.06 67.6205 578.243 60.8585C558.258 55.8187 537.317 60.4952 529.271 73.2358C521.311 85.8406 532.505 99.0729 539.496 105.256C561.667 124.867 599.629 130.496 612.147 159.61C623.382 185.742 617.909 227.607 624.524 257.555C628.061 273.566 632.83 287.97 638.785 301.414C642.848 310.585 649.365 318.668 654.93 326.439C674.6 353.904 702.99 379.624 741.304 388.057C753.094 390.653 771.392 390.586 783.818 388.595C791.352 388.237 798.888 387.878 806.421 387.519C829.105 383.741 865.064 385.311 882.839 391.555C911.719 401.701 925.867 426.658 951.723 439.72C963.544 445.692 982.556 447.762 994.507 440.527C1022.52 423.566 1016.42 386.973 999.35 363.571C983.782 342.23 961.013 326.052 938.269 311.908C907.268 292.63 875.555 277.369 860.237 242.486C855.199 231.016 853.217 218.534 849.742 204.816C846.121 190.515 841.818 176.691 836.826 163.916C834.46 157.86 828.718 143.627 837.095 140.237C846.778 136.318 856.491 149.561 859.967 154.498C869.564 168.128 871.375 186.134 876.65 204.816C880.578 218.727 886.17 231.218 893.602 241.679C919.121 277.597 960.782 298.128 995.045 325.362C1009.25 336.654 1020.35 351.194 1029.76 367.339C1052.74 406.798 1030 455.062 998.273 468.512C993.096 470.707 987.232 471.928 981.052 473.087C975.145 474.194 966.681 474.044 960.87 473.087C951.995 471.624 944.933 470.972 937.999 467.974C909.117 455.487 895.146 426.441 865.886 413.89C849.318 406.782 819.373 405.165 797.54 409.316C781.033 412.454 759.613 416.79 742.648 411.468C729.733 407.417 717.915 401.379 707.13 395.055C659.302 367.009 634.763 335.587 617.257 277.198C612.108 260.024 610.34 240.903 606.763 222.038C603.316 203.858 602.391 186.535 594.386 173.335C585.456 158.61 574.496 160.966 558.06 154.5C536.429 145.988 519.072 129.341 506.936 111.178C502.725 104.877 496.718 96.2803 499.132 84.5394C503.911 61.3023 535.261 32.5068 568.016 37.9887C580.931 39.6931 593.849 41.3974 606.764 43.1009C611.807 43.977 619.591 44.9019 625.599 43.9079C634.657 42.8319 643.719 41.755 652.777 40.6789C681.991 34.7573 709.498 27.8685 729.733 12.9636C750.703 -2.48343 750.741 -25.4036 758.524 -53.4985C766.774 -83.2814 778.586 -106.006 795.119 -126.957C798.894 -131.74 806.222 -141.833 811.533 -144.447C812.699 -145.703 813.865 -146.958 815.031 -148.214C805.166 -148.303 795.298 -148.394 785.433 -148.483C780.769 -142.564 776.104 -136.643 771.44 -130.724C764.937 -121.852 759.891 -111.933 754.219 -102.201C742.032 -81.2927 736.816 -55.0524 724.352 -34.6624C712.852 -15.8514 697.554 -3.3376 675.649 5.16124C661.102 10.8049 643.716 13.5057 623.986 13.5024C619.861 13.5024 615.733 13.5024 611.609 13.5024C604.344 13.2334 597.078 12.9644 589.813 12.6954C578.042 10.7367 559.327 11.8883 548.645 14.0405C518.78 20.058 495.997 34.0152 481.106 54.9401C477.704 59.7199 474.571 65.4026 472.496 71.3543C467.772 84.9003 472.812 101.546 478.147 110.909C492.859 136.731 514.973 153.766 542.995 166.07C557.108 172.267 574.483 179.624 582.28 192.17C591.52 207.04 589.223 232.242 593.043 252.444C595.642 266.188 596.991 279.597 600.308 292.537C603.836 306.3 608.31 318.762 610.802 333.436C612.584 343.921 607.527 353.923 604.613 360.614C600.508 370.042 594.976 378.389 586.047 382.947C551.605 400.529 509.028 383.279 481.107 372.184C473.361 369.106 449.22 361.664 446.126 355.501C446.037 354.963 445.947 354.424 445.857 353.886C454.757 347.999 475.502 356.308 483.259 358.73C513.228 368.085 558.403 382.586 579.051 353.079C591.48 335.316 580.658 300.593 576.629 281.504C570.638 253.118 574.581 216.492 559.677 197.282C547.986 182.212 526.276 176.531 509.359 166.607C486.513 153.205 469.78 139.17 456.35 116.289C448.538 102.979 440.222 76.186 450.43 59.2444C457.945 46.7745 468.733 37.2012 477.607 26.1479C491.821 8.44228 507.052 -7.93124 531.692 -15.2898C544.747 -19.1885 559.198 -18.1287 574.475 -20.671C583.623 -21.2984 592.773 -21.9267 601.922 -22.5549C627.865 -26.869 655.746 -26.2244 674.842 -37.3542C693.409 -48.1758 691.587 -61.4544 699.597 -82.0209C704.806 -95.3954 710.171 -108.246 717.087 -119.961C722.917 -129.468 728.748 -138.977 734.578 -148.484C706.865 -148.484 679.144 -148.484 651.432 -148.484C651.101 -137.58 646.747 -126.892 643.36 -118.347C632.567 -91.1163 613.109 -60.124 584.432 -51.3463C574.643 -48.3497 563.149 -49.5233 551.605 -47.5793C533.061 -44.4559 517.981 -42.2347 505.054 -34.1251C479.002 -17.7809 470.523 16.1552 446.664 34.7589C436.199 42.9188 403.101 59.3858 400.383 71.6225C397.46 84.78 410.644 102.797 415.451 110.908C428.722 133.301 438.601 154.452 443.704 185.443C444.951 193.015 442.789 201.45 441.551 207.507C439.488 220.153 437.425 232.802 435.362 245.447C433.301 257.654 436.172 270.726 442.627 275.584C453.741 283.947 472.572 277.644 489.447 280.427C494.738 280.875 500.031 281.324 505.322 281.772C522.904 285.675 534.002 293.388 543.263 305.451C546.923 310.219 554.208 318.363 552.142 328.053C547.915 347.879 510.933 347.903 490.254 342.853C474.059 338.898 459.193 334.4 442.089 330.744C437.115 329.681 429.867 328.062 423.523 329.13C418.454 329.985 413.665 330.589 410.069 332.897C405.444 335.866 402.552 340.89 397.153 343.122C389.081 345.275 381.008 347.428 372.935 349.581C352.23 356.285 333.121 366.519 321.004 381.87C314.504 390.104 309.001 398.937 304.858 409.585C298.332 426.362 301.058 450.694 307.28 465.554C318.157 491.531 341.521 516.991 333.919 558.655C327.579 593.401 314.434 618.532 299.207 643.954C286.171 665.719 273.32 686.984 258.577 706.918C252.656 714.923 244.261 721.068 238.396 728.982C238.396 729.251 238.396 729.52 238.396 729.789C250.683 729.789 262.973 729.789 275.259 729.789C277.771 724.857 280.282 719.922 282.793 714.99C289.203 704.023 295.191 692.629 302.436 682.431C310.093 671.654 319.281 662.431 327.46 652.295C332.857 645.605 339.882 640.341 344.95 633.19C355.4 618.446 361.724 601.033 367.284 581.259C371.211 567.288 374.528 545.878 370.782 528.788C366.351 508.582 357.669 492.332 347.372 477.932C333.459 458.474 313.86 438.022 327.73 405.012C336.085 385.127 354.429 371.539 376.164 364.919C382.375 363.027 388.373 362.895 395.537 361.69C401.92 360.618 411.419 360.602 417.601 361.959C427.205 364.068 434.647 368.109 442.895 371.378C450.406 374.353 471.751 379.236 473.57 386.446C469.202 393.841 434.879 387.183 426.481 385.639C394.185 379.698 361.338 389.191 349.256 408.241C335.807 429.447 350.897 447.471 361.095 460.173C366.746 466.63 372.397 473.089 378.048 479.546C388.674 493.66 393.904 509.204 397.69 530.671C398.916 537.622 399.25 547.42 397.959 554.888C389.773 602.249 380.804 631.932 357.059 663.327C345.396 678.748 332.783 692.937 321.541 709.071C318.371 713.62 310.813 723.346 310.509 729.79C327.1 729.79 343.697 729.79 360.288 729.79C361.573 725.277 370.647 718.601 373.742 714.722C380.383 706.4 386.614 697.967 390.964 687.275C400.77 663.168 398.265 626.971 404.956 599.825C407.85 588.082 411.045 576.971 415.45 566.728C419.593 557.097 425.057 549.026 427.289 537.13C432.551 509.094 413.767 484.251 405.225 466.362C402.996 461.693 401.437 448.969 410.606 450.756C421.095 452.799 429.216 472.731 434.016 481.699C441.403 495.504 448.567 509.875 451.507 527.981C454.111 544.023 442.844 558.579 438.321 568.88C431.562 584.28 427.378 599.503 424.329 619.467C422.215 633.311 424.611 651.833 426.482 664.403C429.662 685.764 420.029 705.528 412.49 716.874C409.974 720.661 407.544 726.145 403.61 728.444C403.61 728.893 403.61 729.341 403.61 729.789C434.102 729.789 464.604 729.789 495.096 729.789C495.186 729.609 495.276 729.431 495.365 729.251C490.881 723.69 486.396 718.129 481.911 712.568C472.832 699.888 465.53 685.831 459.578 670.053C456.54 662 455.575 652.572 453.927 643.415C452.109 633.312 452.49 620.404 454.196 610.856C463.473 558.932 490.606 537.989 529 515.603C536.586 511.18 544.958 508.508 553.486 505.109C588.681 491.077 655.361 473.46 682.106 507.262C705.32 536.6 688.885 573.216 679.146 604.399C676.276 615.52 673.406 626.644 670.536 637.765C660.421 670.555 644.457 696.845 618.065 713.376C604.381 721.947 581.62 729.24 559.944 723.332C550.946 720.879 542.711 717.448 535.458 713.107C514.57 700.603 499.622 680.059 492.943 653.372C480.623 604.134 511.134 565.936 543.261 553.274C560.962 546.298 587.031 545.534 604.88 553.005C626.119 561.894 637.172 583.182 637.17 613.548C637.169 620.791 637.318 627.57 635.824 633.46C628.927 660.653 612.94 680.366 586.045 687.814C580.86 689.249 572.993 690.604 566.402 689.428C548.246 686.19 535.48 673.581 529.27 658.484C517.686 630.324 531.743 596.472 548.912 584.218C556.896 578.521 583.737 568.568 590.62 582.873C590.617 593.597 570.791 592.783 563.442 597.134C539.614 611.242 533.325 662.409 567.478 670.054C605.506 678.567 629.005 626.901 616.989 592.56C610.987 575.404 599.538 567.686 579.588 564.306C567.62 562.279 556.747 567.067 549.182 570.226C524.372 580.584 501.029 610.178 510.165 648.529C516.377 674.605 533.595 695.027 558.33 702.613C576.775 708.27 596.363 702.63 608.648 695.348C632.673 681.106 644.487 656.216 653.315 626.733C656.601 615.759 658.096 604.86 661.656 594.444C667.929 576.094 682.906 536.637 664.347 521.793C637.391 500.231 607.579 514.437 581.202 525.291C566.459 531.357 548.467 534.069 533.844 540.359C508.781 551.139 490.335 569.258 480.297 595.251C476.922 603.992 476.109 613.514 474.377 624.042C473.437 629.758 474.098 637.945 474.915 642.878C479.893 672.913 489.729 692.187 504.783 711.493C507.678 715.205 523.211 727.411 523.887 729.79C561.016 729.79 598.156 729.79 635.286 729.79C636.258 726.324 645.813 719.656 648.471 716.336C656.209 706.669 663.713 696.817 670.266 685.93C679.561 670.489 684.453 652.292 690.178 633.19C693.945 620.007 697.712 606.819 701.479 593.636C707.347 574.575 715.832 549.11 710.09 525.021C706.611 510.426 700.48 498.323 693.676 487.08C687.755 477.297 681.859 465.808 670.805 461.249C658.194 456.048 633.596 465.804 622.909 469.052C596.177 477.178 570.155 481.891 540.033 487.349C529.707 489.22 513.9 491.474 502.362 488.964C479.697 484.034 470.326 465.971 456.619 452.101C446.873 442.239 433.684 432.109 430.787 415.775C429.662 409.431 433.742 404.744 437.514 403.128C446.169 399.421 485.588 400.332 496.711 402.321C509.601 404.626 521.604 405.852 534.921 408.241C540.178 409.184 547.975 410.364 554.294 409.317C560.931 408.421 567.569 407.523 574.206 406.626C602.188 399.455 628.788 383.58 628.559 348.236C628.739 348.147 628.918 348.057 629.097 347.967C631.41 352.977 632.808 358.659 633.94 364.919C634.969 370.608 634.116 377.928 633.133 382.679C627.355 410.624 606.231 417.773 578.511 423.847C570.215 425.665 556.932 427.484 546.49 425.731C532.687 423.413 520.373 421.856 508.012 419.004C496.612 416.374 457.016 414.051 463.883 430.844C466.73 437.806 473.793 443.486 479.489 447.796C505.443 467.43 542.481 469.335 580.663 459.904C594.809 456.41 608.33 453.925 620.755 449.141C631.357 445.059 640.823 441.448 649.278 435.418C654.049 432.015 659.162 426.449 661.117 420.349C664.785 408.902 661.533 391.026 679.952 396.67C702.887 403.698 736.075 427.458 743.186 450.217C751.306 476.206 736.508 520.741 730.27 541.972C720.214 576.203 719.526 618.614 709.282 652.833C703.22 673.081 697.09 693.014 687.217 709.609C682.733 716.155 678.248 722.704 673.763 729.251C673.943 729.431 674.122 729.609 674.301 729.789C684.884 729.789 695.47 729.789 706.053 729.789C706.591 728.624 707.129 727.457 707.667 726.291C710.945 721.163 713.6 715.673 716.816 710.146C726.074 694.237 729.933 675.986 733.499 653.909C733.768 637.945 734.037 621.977 734.306 606.013C739.043 576.003 742.4 549.469 748.567 521.253C751.975 503.047 755.385 484.836 758.792 466.63C758.882 466.63 758.972 466.63 759.061 466.63C766.855 474.863 763.629 518.835 761.214 532.285C759.062 547.531 756.909 562.783 754.756 578.029C754.487 584.575 754.218 591.125 753.949 597.671C753.86 605.294 753.77 612.92 753.68 620.543C753.949 626.462 754.218 632.383 754.487 638.302C756.405 650.058 756.896 667.014 754.756 678.932C751.113 699.228 744.505 713.581 736.997 728.981C736.997 729.25 736.997 729.519 736.997 729.788C745.248 729.788 753.501 729.788 761.752 729.788C761.331 726.771 766.218 716.989 767.404 713.105C770.963 701.441 771.875 689.507 774.131 675.703C776.214 662.946 772.85 642.385 770.901 631.844C770.004 621.71 769.108 611.572 768.211 601.438C766.279 589.535 768.796 572.076 770.632 562.153C773.682 541.884 776.732 521.61 779.782 501.341C782.446 486.388 781.002 467.422 778.705 453.445C777.246 444.563 779.039 435.787 783.818 432.188C797.642 421.777 834.274 433.887 845.168 439.453C861.113 447.599 872.655 460.414 887.683 469.589C902.727 478.775 919.813 482.548 939.615 487.618C951.505 490.661 968.012 495.43 983.474 492.73C1021.17 486.147 1042.76 464.636 1055.59 433.533C1060.53 421.544 1065.57 402.315 1060.7 386.175C1053.61 362.684 1037.41 344.221 1020.34 330.476C1015.05 325.364 1009.75 320.251 1004.46 315.139C1004.46 314.781 1004.46 314.421 1004.46 314.063C1012.54 312.145 1031.99 327.128 1037.29 331.015C1056.57 345.145 1072.3 360.428 1080.07 386.176C1081.89 392.193 1081.7 397.9 1082.76 405.011C1084.38 415.771 1081.5 428.447 1078.46 436.494C1070.04 458.797 1053.94 476.646 1036.48 490.04C1025.95 498.128 1010.23 506.549 1004.73 519.37C1000.85 528.422 1003.28 542.065 1005.27 551.39C1009.68 572.052 1017.44 595.617 1013.07 621.081C1005.88 663.051 985.156 688.793 947.956 700.729C929.901 706.522 908.787 708.158 890.373 713.644C882.03 716.13 873.731 718.919 866.156 722.254C862.299 724.317 858.442 726.38 854.586 728.443C854.406 728.712 854.227 728.981 854.048 729.25C856.707 731.166 877.012 729.789 882.032 729.788C909.014 729.787 945.447 732.977 965.177 725.214C984.321 717.682 1000.13 706.638 1010.38 690.234C1024.37 667.87 1030.83 640.187 1052.09 625.117C1069.22 612.976 1092.36 604.862 1115.32 599.016C1123.86 596.842 1138.15 595.308 1146.54 598.747C1158.73 603.75 1165.7 615.555 1172.37 626.194C1187.83 650.86 1206.61 689.765 1205.73 729.789C1213.27 729.789 1220.8 729.789 1228.34 729.789C1227.95 691.154 1214.36 665.599 1202.77 638.303C1196.04 622.435 1191.26 606.209 1187.97 586.909C1184.2 564.735 1196.88 549.753 1203.04 535.784C1207.84 524.901 1212.83 514.094 1216.5 501.88C1219.28 492.621 1219.86 482.657 1221.61 472.282C1223.4 461.689 1217.17 441.917 1214.34 434.611C1204.45 409.033 1192.28 387.839 1183.94 360.076C1176.22 334.376 1171.1 291.482 1179.9 263.208C1182.72 254.137 1187.95 241.636 1199.54 241.682C1199.72 241.951 1199.9 242.22 1200.08 242.489C1202.32 248.496 1191.3 261.805 1189.32 266.437C1183.55 279.915 1181.9 302.926 1185.28 320.522C1190.84 349.431 1200.03 377.751 1213.54 399.093C1223.71 415.176 1248.39 445.451 1244.21 473.359C1240.74 496.533 1237.34 514.497 1227.8 530.942C1218.75 546.533 1202.16 572.305 1206.27 599.826C1209.99 624.739 1214.89 643.186 1225.64 660.369C1238.01 680.131 1255.68 697.479 1255.24 729.791C1312.46 729.791 1369.7 729.791 1426.92 729.791C1426.83 703.008 1439.79 689.317 1447.9 670.863C1454.59 655.669 1458.59 641.058 1461.9 621.621C1463.69 611.054 1461.44 598.685 1459.47 590.139C1457.2 580.256 1455.61 571.571 1452.21 562.962C1446.76 549.16 1440.45 536.755 1435.79 521.793C1431.63 508.405 1428.82 489.235 1433.1 473.898C1434.92 467.404 1437.43 460.746 1440.64 455.331C1446.26 445.834 1453.37 437.475 1461.89 430.845C1470.55 424.112 1483.15 414.468 1497.68 414.431C1497.68 406.269 1497.68 398.106 1497.68 389.945C1483.63 390.599 1473.47 398.506 1462.97 403.13C1449.75 408.951 1437.61 412.563 1420.19 415.238C1405.1 417.556 1389.12 413.426 1379.02 409.587C1368.52 405.599 1360.07 401.138 1352.11 394.788C1331.75 378.546 1312.7 336.263 1320.36 296.574C1328.44 254.753 1348.55 226.153 1360.18 188.405C1369.49 158.207 1364.67 122.512 1359.91 90.4603C1358.26 79.3216 1364.59 52.2475 1370.68 49.8296C1382.57 45.1027 1383.83 59.7296 1385.21 67.5888C1387.09 80.8617 1388.97 94.1395 1390.86 107.412C1391.22 113.242 1391.58 119.073 1391.93 124.903C1392.02 131.091 1392.11 137.281 1392.2 143.469C1391.31 151.72 1390.41 159.973 1389.51 168.224C1385.79 186.491 1379.73 201.611 1373.1 216.658C1364.79 235.516 1353.46 252.468 1345.65 272.626C1341.32 283.815 1340.06 295.181 1337.85 308.952C1335.78 321.862 1337.75 337.044 1341.08 347.43C1351.24 379.12 1388.33 404.741 1432.3 391.559C1446.56 386.626 1460.82 381.692 1475.08 376.759C1481.64 374.163 1489.75 369.621 1497.68 369.225C1497.68 363.575 1497.68 357.923 1497.68 352.273C1485.6 352.984 1475.08 360.505 1465.66 364.65C1454.53 369.547 1443.83 373.639 1430.15 376.216ZM861.582 339.89C874.378 341.946 887.197 342.754 898.177 346.079C910.895 349.931 921.279 353.642 928.314 363.031C930.695 366.21 934.847 372.787 931.274 377.831C926.395 384.716 912.372 378.201 907.056 375.947C890.497 368.926 876.702 366.967 855.662 363.569C837.995 362.852 820.322 362.134 802.654 361.417C794.403 361.058 786.149 360.699 777.898 360.34C763.066 357.943 749.007 356.813 736.191 352.806C690.186 338.424 655.845 298.682 643.628 250.557C635.711 219.37 639.051 180.047 627.483 152.612C619.874 134.565 604.57 121.601 588.736 111.713C582.622 107.894 569.744 105.103 573.667 94.7605C574.958 94.016 576.801 94.0566 578.511 93.4154C602.735 93.3422 623.984 107.332 633.133 122.207C637.376 129.105 640.037 137.089 643.359 144.809C650.747 161.981 657.223 179.868 662.194 199.701C664.615 215.127 667.038 230.557 669.459 245.983C676.884 278.025 689.969 303.665 714.126 318.903C729.399 328.537 746.408 332.962 768.211 336.662C778.166 337.2 788.124 337.738 798.078 338.277C802.742 338.277 807.407 338.277 812.07 338.277C821.935 338.457 831.804 338.635 841.669 338.815C848.307 339.173 854.946 339.532 861.582 339.89ZM835.751 222.034C847.366 260.731 840.732 294.697 806.691 305.717C795.672 309.283 779.568 309.195 767.405 306.793C751.479 303.648 738.479 299.683 727.581 291.725C709.173 278.28 699.364 251.692 692.87 226.608C689.535 213.727 687.929 201.062 683.721 189.475C677.891 174.767 672.061 160.055 666.231 145.346C663.891 139.365 660.446 129.047 663.54 121.129C670.025 104.527 696.846 93.1025 715.741 88.3016C722.647 87.3149 729.554 86.3283 736.46 85.3416C757.538 85.4237 766.311 96.199 777.898 105.523C805.101 127.41 824.198 183.542 835.751 222.034ZM530.078 257.552C528.142 262.245 521.862 263.74 515.278 262.126C508.821 260.512 502.362 258.897 495.905 257.283C488.848 255.743 480.797 255.751 475.455 252.44C473.447 251.195 471.494 248.574 470.881 245.982C466.836 228.887 497.342 239.851 503.439 240.87C506.719 241.418 508.056 239.857 509.628 238.717C512.098 228.767 503.343 220.875 499.134 215.307C489.374 202.394 476.35 192.908 466.307 180.326C462.653 175.749 456.348 170.727 455.812 163.374C456.172 162.925 456.53 162.477 456.889 162.029C461.75 162.186 477.124 177.721 481.644 181.133C498.883 194.146 520.63 205.396 528.464 227.684C530.93 234.703 533.441 249.402 530.078 257.552Z" fill="#4D4B67"/>
<path d="M1451.94 268.853C1437.92 274.323 1407.68 297.419 1423.15 318.095C1440.43 341.186 1476.65 312.417 1497.68 310.561C1497.68 295.942 1497.68 281.319 1497.68 266.701C1489.27 265.827 1480.3 265.009 1470.24 265.087C1464.32 267.444 1457.38 266.731 1451.94 268.853Z" fill="#4D4B67"/>
<path d="M1088.15 627.804C1080.4 630.459 1072.85 633.965 1066.62 638.299C1054.82 646.511 1044.17 658.923 1038.1 672.741C1034.21 681.592 1031.12 690.289 1026.26 698.034C1020.71 706.888 1013.28 716.338 1005.27 722.79C1002.85 724.852 1000.43 726.916 998.005 728.979C998.005 729.248 998.005 729.517 998.005 729.786C1012.71 729.786 1027.43 729.786 1042.13 729.786C1045 724.136 1047.87 718.484 1050.74 712.834C1057.58 699.454 1064.38 684.575 1076.31 676.239C1086.47 669.133 1104.43 667.262 1117.48 673.01C1135.17 680.809 1143.59 697.656 1149.76 717.139C1150.84 721.354 1151.92 725.57 1152.99 729.785C1161.96 729.785 1170.93 729.785 1179.9 729.785C1178.63 719.884 1179.08 710.863 1176.94 702.339C1167.5 664.643 1140.42 609.887 1088.15 627.804Z" fill="#4D4B67"/>
<path d="M257.771 364.108C254.594 369.525 251.146 375.992 250.774 384.02C250.864 384.109 250.954 384.199 251.043 384.289C255.51 383.119 263.176 372.132 266.112 368.413C273.018 359.893 279.925 351.371 286.831 342.851C292.957 334.958 300.577 329.052 304.59 318.903C304.036 318.314 304.227 318.38 303.245 318.096C280.943 329.824 270.286 342.769 257.771 364.108Z" fill="#4D4B67"/>
<path d="M241.087 591.479C243.921 582.453 244.443 572.861 246.2 562.418C247.372 555.446 246.151 546.572 245.123 540.892C241.421 520.42 234.962 505.605 226.019 490.574C220.471 481.247 213.959 471.906 210.413 460.707C202.422 435.474 216.026 412.749 223.329 394.783C228.468 382.14 232.238 368.691 238.935 357.381C255.265 329.807 278.432 312.383 305.667 295.762C317.675 288.435 330.358 282.398 341.186 273.967C353.98 264.004 363.113 249.268 371.591 234.951C381.944 217.471 392.816 188.89 386.121 160.954C386.928 160.327 387.736 159.699 388.543 159.07C389.081 159.07 389.619 159.07 390.158 159.07C396.521 165.323 395.737 176.738 397.423 187.862C401.433 214.314 386.001 241.417 376.166 257.015C373.556 261.153 360.474 276.813 364.327 283.922C367.934 291.322 385.374 279.035 387.736 277.195C405.456 263.405 409.559 244.911 414.106 217.729C415.343 210.329 415.847 199.994 414.644 192.436C413.358 184.354 414.281 177.203 412.76 170.103C407.169 144.002 396.253 124.402 383.968 105.255C378.497 96.7273 362.111 74.7808 371.052 62.471C379.811 50.4123 395.689 43.387 408.723 35.5635C418.452 29.7231 427.534 23.1147 436.169 16.1902C450.237 4.90848 461.389 -12.4273 471.15 -27.9385C478.646 -39.8509 485.273 -52.2444 497.519 -59.4209C514.244 -69.2218 538.794 -67.8458 559.676 -74.2202C587.687 -82.7702 602.492 -98.6829 612.954 -124.807C615.785 -131.878 618.819 -139.881 619.95 -148.486C608.65 -148.486 597.346 -148.486 586.046 -148.486C584.675 -140.698 579.475 -134.111 575.552 -128.574C560.264 -106.994 531.409 -89.1673 496.174 -103.819C480.391 -110.382 465.832 -122.253 455.812 -134.763C452.225 -139.158 448.637 -143.554 445.049 -147.948C443.629 -149.218 429.477 -148.554 426.214 -148.486C426.214 -148.397 426.214 -148.307 426.214 -148.217C435.238 -136.87 444.179 -125.929 450.162 -111.354C452.863 -104.774 454.501 -97.3126 456.082 -89.8273C459.665 -72.8588 455.194 -54.6826 450.162 -43.0076C436.691 -11.7462 407.852 4.90848 382.085 23.9933C378.677 27.2215 375.268 30.4514 371.86 33.6804C365.562 42.302 363.356 53.5511 350.872 56.0138C338.724 58.4097 328.663 50.4237 321.273 46.8647C300.976 37.0907 282.018 26.0406 261.807 16.7282C250.532 11.5323 238.717 6.7534 225.482 3.81209C204.28 -0.899384 193.995 12.1216 187.272 -12.3322C177.246 -48.8025 218.217 -30.8416 231.67 -24.7095C250.662 -16.0538 267.632 -3.8212 284.948 7.04193C293.475 12.3914 301.995 18.8178 312.932 21.5722C326.603 25.0157 341.292 13.0367 349.527 8.11801C377.539 -8.61313 412.792 -25.6848 423.254 -59.4209C423.074 -60.3174 422.895 -61.2147 422.716 -62.1119C416.685 -65.9863 402.146 -50.6474 397.961 -47.3127C374.299 -28.4603 358.144 -14.1682 320.197 -8.56517C302.979 -6.02292 283.814 -18.4839 274.453 -24.7103C252.723 -39.1625 231.521 -52.8499 204.762 -62.6508C194.862 -66.2764 172.541 -76.5219 158.749 -71.261C149.705 -67.8117 145.3 -56.7763 148.524 -43.8147C153.614 -23.3563 170.041 -0.515762 160.901 24.8004C156.114 38.0611 147.142 47.6417 139.375 57.8969C126.492 74.9068 111.809 90.2855 99.5514 107.946C85.6974 127.904 80.4967 152.474 75.8722 182.212C74.6303 190.198 74.1378 200.721 75.3341 208.85C76.5874 217.367 75.9169 225.027 77.7561 232.529C83.451 255.762 94.037 271.649 106.548 287.69C121.76 307.196 146.664 323.498 131.303 359.265C128.647 365.449 124.232 371.153 120.271 376.217C103.729 397.365 48.9501 395.742 18.8282 386.712C6.00146 382.866 -5.6744 378.031 -16.6903 372.45C-23.775 369.222 -30.8621 365.992 -37.9476 362.763C-45.1518 359.31 -61.3335 351.038 -69.43 350.386C-69.43 356.664 -69.43 362.944 -69.43 369.221C-63.6457 370.414 -57.9679 374.546 -53.2849 377.294C-38.5247 385.956 -24.5593 395.804 -7.54126 401.78C9.73196 407.846 35.2432 405.696 50.0416 414.696C61.6346 421.746 57.0247 434.077 63.4957 445.101C73.833 462.714 99.8123 456.385 116.773 449.407C148.945 436.17 179.539 415.667 193.192 384.021C205.03 356.579 207.959 327.425 224.405 304.373C237.507 286.008 259.451 271.412 281.181 261.859C299.601 253.761 319.654 244.602 331.499 229.838C340.096 219.122 348.128 208.295 352.756 193.513C358 176.761 355.166 154.26 350.065 139.966C338.195 106.706 307.788 78.0984 273.378 67.3149C201.729 44.8605 145.176 95.1254 124.577 141.85C118.475 155.694 108.77 179.962 112.738 201.047C116.796 222.611 123.758 238.466 134.265 253.248C139.287 258.987 144.311 264.729 149.333 270.469C154.832 277.631 159.279 285.784 163.056 294.686C166.79 303.488 169.429 313.192 171.666 323.209C179.412 357.877 168.232 390.175 152.831 410.659C149.692 413.26 146.552 415.861 143.413 418.462C130.97 428.009 119.022 436.317 102.244 441.872C100.036 439.604 102.574 435.249 103.859 433.799C109.13 427.852 116.873 424.113 123.232 419.269C129.587 414.429 137.192 409.943 142.068 403.663C150.241 393.135 155.923 380.749 161.172 367.337C164.126 359.787 167.82 347.91 165.746 336.932C161.289 313.339 145.238 307.229 129.959 294.955C109.052 278.162 98.5209 251.534 91.2111 220.958C88.5981 210.029 86.6053 193.736 89.0581 180.866C91.8515 166.212 95.3439 153.307 100.628 141.311C118.058 101.748 154.446 69.3338 194.268 51.9769C215.2 42.8538 241.769 39.3875 266.919 47.1337C277.396 50.3603 288.692 53.8901 297.863 58.9729C318.561 70.4464 337.947 86.7241 351.948 104.986C359.521 114.863 366.436 125.88 371.052 138.62C392.638 198.189 342.184 247.49 307.011 268.047C285.599 280.562 260.21 285.975 245.661 305.18C238.515 314.613 233.823 325.556 228.171 336.662C219.863 352.987 211.625 369.963 204.492 387.249C196.69 406.157 191.477 424.458 180.006 439.181C159.878 465.015 124.54 476.758 85.8283 484.116C61.3265 488.773 47.2498 480.5 40.6227 463.666C36.4233 452.998 37.0604 440.223 28.7835 433.799C17.3669 424.937 -1.25389 422.851 -15.3452 416.846C-34.2439 408.794 -48.4206 397.241 -69.161 390.746C-69.2504 390.746 -69.3406 390.746 -69.43 390.746C-69.43 398.37 -69.43 405.995 -69.43 413.617C-29.2748 419.975 -2.41774 471.317 17.7513 499.992C22.5814 506.859 29.3662 511.091 37.1247 515.06C40.1546 516.61 45.053 518.669 44.1208 523.939C42.5457 532.843 34.6165 537.4 29.8595 543.312C14.8579 561.958 -18.905 590.546 -0.00794983 625.382C3.1333 631.172 8.12598 636.498 13.1772 640.45C20.5927 646.253 28.1902 652.274 37.3945 656.325C99.6538 683.735 159.947 637.964 178.123 594.437C183.991 580.385 187.952 554.714 182.428 536.854C177.035 519.421 166.208 503.946 151.753 495.416C145.358 491.642 135.198 491.536 129.151 487.344C129.061 486.626 128.971 485.908 128.882 485.191C137.064 476.497 160.287 473.05 173.548 479.81C191.078 488.744 204.758 516.585 209.336 538.738C213.416 558.481 208.19 582.188 202.609 596.589C186.521 638.104 164.695 660.3 123.231 676.506C105.489 683.439 77.4554 690.533 54.6157 683.771C28.2918 675.977 2.81389 656.655 -12.3852 637.758C-18.2882 630.419 -26.1661 624.737 -28.5303 613.81C-30.5013 604.701 -26.8935 596.523 -24.2253 590.4C-17.5892 575.17 -7.16822 563.508 -2.16091 546.81C1.68906 533.97 -1.19456 517.08 -4.58288 506.179C-12.5616 480.507 -24.2724 462.454 -43.5994 448.327C-50.3931 443.361 -59.3585 435.945 -69.4308 434.873C-69.4308 458.729 -69.4308 482.592 -69.4308 506.448C-67.3307 510.543 -63.9473 516.634 -65.1257 523.938C-66.0067 529.402 -67.7135 533.669 -69.4308 537.661C-69.4308 547.975 -69.4308 558.292 -69.4308 568.606C-67.3681 566.543 -65.3045 564.48 -63.2418 562.417C-51.2815 547.562 -44.6958 535.236 -49.2496 507.256C-50.4915 499.624 -49.7836 484.59 -41.1774 486.268C-27.8932 488.857 -13.9701 517.9 -18.306 537.123C-23.723 561.141 -37.4405 578.803 -46.5594 599.818C-51.0571 610.184 -55.9596 625.055 -50.5955 638.028C-39.7064 664.361 -3.53281 679.077 19.9026 693.727C32.3961 701.536 47.3538 711.784 49.2321 729.783C63.4917 729.783 77.7561 729.783 92.0157 729.783C95.8088 726.9 98.1836 722.708 103.048 719.827C109.058 716.269 115.693 714.341 122.421 711.486C133.403 706.827 144.195 701.672 153.904 695.611C192.554 671.481 226.122 639.161 241.087 591.479ZM172.741 264.817C163.978 252.468 155.163 240.152 149.601 224.456C146.701 216.273 145.373 207.135 143.681 197.817C142.072 188.957 142.202 176.123 143.681 167.412C144.931 160.049 145.21 153.653 147.179 147.23C155.657 119.582 172.866 99.858 195.613 86.4185C203.353 81.8452 212.959 78.6608 222.79 76.4624C227.902 75.8349 233.015 75.2067 238.127 74.5784C285.954 74.4354 320.469 103.536 333.919 138.081C335.533 144.18 337.148 150.28 338.762 156.379C341.555 170.034 338.687 185.112 334.726 195.126C323.545 223.388 303.533 236.563 272.569 245.175C262.789 247.895 244.785 252.794 231.669 250.557C225.89 249.571 220.317 248.766 216.063 246.252C199.964 236.735 186.385 209.467 182.159 187.862C175.486 153.745 199.695 123.61 221.714 114.942C228.968 112.087 241.151 109.899 251.043 111.982C270.734 116.128 285.86 128.129 293.02 144.809C306.537 176.3 294.12 203.349 265.574 210.464C257.581 212.456 242.068 208.368 243.778 200.508C245.067 194.585 255.211 193.071 259.924 190.283C267.736 185.661 274.086 178.649 276.068 168.219C277.389 161.269 274.4 155.625 272.57 151.535C264.638 133.814 239.574 122.862 219.561 137.005C203.217 148.557 197.269 175.448 207.184 198.086C218.232 223.313 253.865 238.667 287.369 224.187C312.561 213.299 331.368 183.106 317.775 148.575C306.469 119.86 272.672 83.3601 227.633 92.8765C194.304 99.9181 173.088 122.308 163.592 153.15C161.687 159.34 161.367 165.304 160.094 172.524C157.27 188.549 161.237 206.716 165.745 218.267C171.324 232.562 178.896 245.956 188.886 255.938C194.637 261.686 201.838 266.222 206.645 272.89C208.617 275.624 211.197 280.141 210.143 285.537C208.956 291.614 201.325 303.284 194.806 303.566C189.48 301.313 188.93 294.915 186.734 289.573C183.009 280.515 178.088 272.35 172.741 264.817ZM130.227 522.326C142.802 537.952 158.21 556.811 150.677 586.636C143.8 613.864 127.83 635.777 101.974 643.95C95.7616 645.913 90.0375 645.938 82.6009 647.179C70.6186 649.177 57.4343 645.951 48.9663 642.604C23.8046 632.661 3.70222 607.08 21.7898 576.68C26.4997 568.764 32.7765 562.054 38.2032 554.885C51.0193 537.956 64.3011 524.706 83.1389 513.716C88.7273 510.457 95.07 510.265 101.705 507.527C116.692 507.408 123.666 514.172 130.227 522.326Z" fill="#4D4B67"/>
<path d="M93.9012 532.012C90.7624 532.999 87.622 533.985 84.4832 534.972C69.0825 541.72 52.6757 553.387 46.0047 568.876C35.3033 593.724 47.8236 617.934 67.8 624.037C99.0166 633.574 118.832 610.1 124.845 588.249C131.993 562.274 119.98 531.681 93.9012 532.012Z" fill="#4D4B67"/>
<path d="M984.013 635.608C988.562 625.107 993.531 609.99 990.74 594.17C988.922 583.862 986.304 574.721 984.013 565.379C982.377 558.707 980.784 548.895 982.13 540.354C983.332 532.722 983.406 520.78 979.977 515.868C974.672 508.269 960.757 508.486 950.11 506.181C926.656 501.104 901.911 498.76 882.033 490.305C859.781 480.84 846.037 456.557 816.378 457.209C813.118 458.514 810.215 458.19 808.306 460.707C801.83 469.242 807.358 486.296 805.346 498.916C804.628 506.002 803.91 513.088 803.193 520.174C799.53 537.642 795.842 554.094 792.16 572.644C790.884 579.075 789.013 588.472 790.276 596.324C791.084 604.575 791.891 612.828 792.698 621.079C799.352 656.611 800.261 698.619 788.662 729.249C788.842 729.428 789.021 729.607 789.2 729.787C797.72 729.787 806.243 729.787 814.763 729.787C815.325 729.302 820.054 719.306 821.221 717.678C827.402 709.049 836.233 702.843 847.59 699.381C870.898 692.278 903.692 695.953 926.969 688.887C955.454 680.237 972.823 661.441 984.013 635.608ZM884.992 543.313C888.842 541.636 893.241 541.804 897.639 540.084C927.525 539.875 940.055 555.231 944.19 581.253C945.492 589.455 943.689 598.625 941.23 604.393C934.827 619.411 921.761 625.964 903.021 628.88C873.434 633.482 851.769 599.982 861.044 571.028C864.901 558.991 873.909 548.143 884.992 543.313ZM869.924 663.323C846.202 653.726 833.076 640.924 827.409 613.005C826.136 606.736 825.062 597.312 826.333 589.865C827.563 582.662 828.364 575.76 830.369 569.415C833.508 561.343 836.648 553.269 839.787 545.197C842.494 536.603 846.366 508.658 851.357 504.298C860.114 504.444 872.77 516.661 869.655 526.631C867.323 530.039 864.99 533.448 862.659 536.856C857.678 544.341 852.58 553.126 849.743 562.419C837.571 602.284 852.792 637.909 883.378 647.717C893.342 650.912 908.919 651.259 919.165 648.255C948.904 639.534 964.425 612.198 955.222 573.182C951.394 556.954 942.645 542.979 931.005 534.434C927.328 532.282 923.649 530.129 919.972 527.976C919.793 527.976 919.614 527.976 919.434 527.976C919.434 527.887 919.434 527.796 919.434 527.707C954.989 530.227 985.297 583.195 968.945 624.844C958.071 652.54 938.201 663.712 904.904 669.242C891.674 671.44 878.519 666.8 869.924 663.323Z" fill="#4D4B67"/>
<path d="M1119.09 702.339C1099.4 687.166 1076.63 711.498 1075.77 729.785C1092.72 729.785 1109.67 729.785 1126.62 729.785C1126.96 717.463 1126.19 707.808 1119.09 702.339Z" fill="#4D4B67"/>
<path d="M905.711 610.314C933.46 605.134 934.313 558.426 901.675 558.92C899.523 559.369 897.37 559.818 895.217 560.266C887.816 563.139 881.811 569.189 879.342 576.949C873.792 594.388 887.07 613.794 905.711 610.314Z" fill="#4D4B67"/>
<path d="M303.513 561.342C316.27 510.554 285.443 488.002 276.336 450.75C268.372 418.172 293.77 379.804 307.28 363.031C324.88 341.179 362.067 327.53 395.269 321.054C407.071 318.752 419.852 320.018 432.67 318.094C435.989 318.184 439.308 318.274 442.626 318.363C450.617 319.542 457.402 318.744 464.422 320.247C474.646 322.758 484.873 325.27 495.096 327.781C505.085 329.706 517.727 326.875 519.314 319.44C520.786 312.536 508.562 308.857 503.976 307.063C483.662 299.112 457.889 296.904 429.172 297.376C422.536 297.734 415.897 298.093 409.26 298.452C396.108 300.485 383.645 301.174 372.397 304.641C332.749 316.857 299.489 341.74 279.564 373.794C273.535 383.492 269.364 395.084 265.034 406.352C258.86 422.421 251.839 451.676 257.769 471.469C264.078 492.529 271.85 509.797 276.066 534.164C276.892 538.938 277.976 546.055 277.142 551.655C275.246 564.393 275.193 575.634 272.03 586.366C258.679 631.657 229.536 669.695 196.957 695.881C185.541 705.057 174.82 714.155 161.977 722.25C158.822 724.239 155.823 727.523 151.751 728.439C151.572 728.708 151.393 728.977 151.213 729.246C153.77 730.399 159.03 729.784 162.515 729.784C172.828 729.784 183.145 729.784 193.459 729.784C195.306 725.309 202.445 721.068 205.836 717.676C214.446 708.08 223.058 698.481 231.668 688.885C247.311 668.781 260.756 647.835 274.451 625.382C286.181 606.156 297.302 586.074 303.513 561.342Z" fill="#4D4B67"/>
</svg>
