<svg width="35" height="42" viewBox="0 0 35 42" fill="none" xmlns="http://www.w3.org/2000/svg">
<path d="M29.2329 22.3352C29.2541 20.7254 29.6921 19.147 30.5061 17.7468C31.3201 16.3466 32.4836 15.1702 33.8884 14.327C32.996 13.0827 31.8186 12.0586 30.4499 11.3362C29.0812 10.6138 27.5588 10.213 26.0036 10.1655C22.6862 9.82548 19.4701 12.1035 17.7796 12.1035C16.0564 12.1035 13.4536 10.1992 10.6508 10.2555C8.83786 10.3127 7.07104 10.8274 5.52244 11.7494C3.97385 12.6715 2.69631 13.9694 1.81429 15.5168C-2.00634 21.975 0.843509 31.4664 4.50342 36.6867C6.33456 39.243 8.47462 42.0984 11.2749 41.9971C14.0151 41.8861 15.0385 40.2912 18.3462 40.2912C21.6232 40.2912 22.5833 41.9971 25.4404 41.9327C28.3808 41.8861 30.2333 39.3651 32.0003 36.7847C33.316 34.9633 34.3284 32.9502 35 30.8201C33.2917 30.1147 31.8339 28.9339 30.8084 27.4251C29.7828 25.9163 29.2349 24.1461 29.2329 22.3352Z" fill="black"/>
<path d="M23.8376 6.73248C25.4408 4.85349 26.2306 2.43837 26.0394 0C23.59 0.251159 21.3275 1.39404 19.7026 3.20093C18.9082 4.08365 18.2997 5.11058 17.912 6.22301C17.5243 7.33544 17.365 8.51157 17.4432 9.68415C18.6683 9.69647 19.8803 9.43722 20.9879 8.92594C22.0955 8.41466 23.0699 7.66468 23.8376 6.73248Z" fill="black"/>
</svg>
