<svg width="37" height="42" viewBox="0 0 37 42" fill="none" xmlns="http://www.w3.org/2000/svg">
<path d="M17.1598 20.0582L0.158203 38.5106C0.1598 38.5139 0.1598 38.5188 0.161397 38.522C0.683565 40.5257 2.47203 42.0002 4.59584 42.0002C5.44536 42.0002 6.24219 41.7651 6.92564 41.3536L6.97993 41.3209L26.1165 30.029L17.1598 20.0582Z" fill="#EA4335"/>
<path d="M34.3595 16.9153L34.3435 16.9039L26.0815 12.0067L16.7734 20.4768L26.115 30.0264L34.3324 25.1781C35.7727 24.3812 36.7516 22.8283 36.7516 21.0386C36.7516 19.2586 35.7871 17.7139 34.3595 16.9153Z" fill="#FBBC04"/>
<path d="M0.156491 3.48794C0.0542928 3.87332 0 4.27829 0 4.69633V37.3033C0 37.7213 0.0542928 38.1263 0.158088 38.51L17.7426 20.5295L0.156491 3.48794Z" fill="#4285F4"/>
<path d="M17.284 20.9998L26.0827 12.0038L6.9684 0.671051C6.27377 0.24485 5.46257 -9.34601e-05 4.59548 -9.34601e-05C2.47168 -9.34601e-05 0.680015 1.47773 0.157846 3.48301C0.157846 3.48464 0.15625 3.48627 0.15625 3.48791L17.284 20.9998Z" fill="#34A853"/>
</svg>
